<?xml version="1.0" encoding="utf-8" standalone="no"?>
<!DOCTYPE svg PUBLIC "-//W3C//DTD SVG 1.1//EN"
  "http://www.w3.org/Graphics/SVG/1.1/DTD/svg11.dtd">
<!-- Created with matplotlib (https://matplotlib.org/) -->
<svg height="601.929063pt" version="1.1" viewBox="0 0 1445.365625 601.929063" width="1445.365625pt" xmlns="http://www.w3.org/2000/svg" xmlns:xlink="http://www.w3.org/1999/xlink">
 <metadata>
  <rdf:RDF xmlns:cc="http://creativecommons.org/ns#" xmlns:dc="http://purl.org/dc/elements/1.1/" xmlns:rdf="http://www.w3.org/1999/02/22-rdf-syntax-ns#">
   <cc:Work>
    <dc:type rdf:resource="http://purl.org/dc/dcmitype/StillImage"/>
    <dc:date>2023-08-03T12:24:50.728858</dc:date>
    <dc:format>image/svg+xml</dc:format>
    <dc:creator>
     <cc:Agent>
      <dc:title>Matplotlib v3.3.2, https://matplotlib.org/</dc:title>
     </cc:Agent>
    </dc:creator>
   </cc:Work>
  </rdf:RDF>
 </metadata>
 <defs>
  <style type="text/css">*{stroke-linecap:butt;stroke-linejoin:round;}</style>
 </defs>
 <g id="figure_1">
  <g id="patch_1">
   <path d="M 0 601.929063 
L 1445.365625 601.929063 
L 1445.365625 0 
L 0 0 
z
" style="fill:none;"/>
  </g>
  <g id="axes_1">
   <g id="patch_2">
    <path d="M 46.765625 559.92125 
L 1441.765625 559.92125 
L 1441.765625 16.32125 
L 46.765625 16.32125 
z
" style="fill:#ffffff;"/>
   </g>
   <g id="matplotlib.axis_1">
    <g id="xtick_1">
     <g id="line2d_1">
      <defs>
       <path d="M 0 0 
L 0 -3 
" id="m628eb9a730" style="stroke:#000000;stroke-width:0.5;"/>
      </defs>
      <g>
       <use style="stroke:#000000;stroke-width:0.5;" x="124.265625" xlink:href="#m628eb9a730" y="559.92125"/>
      </g>
     </g>
     <g id="line2d_2">
      <defs>
       <path d="M 0 0 
L 0 3 
" id="ma19d101c48" style="stroke:#000000;stroke-width:0.5;"/>
      </defs>
      <g>
       <use style="stroke:#000000;stroke-width:0.5;" x="124.265625" xlink:href="#ma19d101c48" y="16.32125"/>
      </g>
     </g>
     <g id="text_1">
      <!-- Raining without high winds -->
      <g transform="translate(46.291094 573.1425)scale(0.14 -0.14)">
       <defs>
        <path d="M 67.578125 0 
L 49.90625 0 
L 27.484375 30.953125 
Q 25 30.859375 23.4375 30.859375 
Q 22.796875 30.859375 22.0625 30.875 
Q 21.34375 30.90625 20.5625 30.953125 
L 20.5625 11.71875 
Q 20.5625 5.46875 21.921875 3.953125 
Q 23.78125 1.8125 27.484375 1.8125 
L 30.078125 1.8125 
L 30.078125 0 
L 1.703125 0 
L 1.703125 1.8125 
L 4.203125 1.8125 
Q 8.40625 1.8125 10.203125 4.546875 
Q 11.234375 6.0625 11.234375 11.71875 
L 11.234375 54.5 
Q 11.234375 60.75 9.859375 62.25 
Q 7.953125 64.40625 4.203125 64.40625 
L 1.703125 64.40625 
L 1.703125 66.21875 
L 25.828125 66.21875 
Q 36.375 66.21875 41.375 64.671875 
Q 46.390625 63.140625 49.875 59.015625 
Q 53.375 54.890625 53.375 49.171875 
Q 53.375 43.0625 49.390625 38.5625 
Q 45.40625 34.078125 37.0625 32.234375 
L 50.734375 13.234375 
Q 55.421875 6.6875 58.78125 4.53125 
Q 62.15625 2.390625 67.578125 1.8125 
z
M 20.5625 34.03125 
Q 21.484375 34.03125 22.171875 34 
Q 22.859375 33.984375 23.296875 33.984375 
Q 32.765625 33.984375 37.578125 38.078125 
Q 42.390625 42.1875 42.390625 48.53125 
Q 42.390625 54.734375 38.5 58.609375 
Q 34.625 62.5 28.21875 62.5 
Q 25.390625 62.5 20.5625 61.578125 
z
" id="TimesNewRomanPSMT-82"/>
        <path d="M 28.46875 6.453125 
Q 21.578125 1.125 19.828125 0.296875 
Q 17.1875 -0.921875 14.203125 -0.921875 
Q 9.578125 -0.921875 6.5625 2.25 
Q 3.5625 5.421875 3.5625 10.59375 
Q 3.5625 13.875 5.03125 16.265625 
Q 7.03125 19.578125 11.984375 22.5 
Q 16.9375 25.4375 28.46875 29.640625 
L 28.46875 31.390625 
Q 28.46875 38.09375 26.34375 40.578125 
Q 24.21875 43.0625 20.171875 43.0625 
Q 17.09375 43.0625 15.28125 41.40625 
Q 13.421875 39.75 13.421875 37.59375 
L 13.53125 34.765625 
Q 13.53125 32.515625 12.375 31.296875 
Q 11.234375 30.078125 9.375 30.078125 
Q 7.5625 30.078125 6.421875 31.34375 
Q 5.28125 32.625 5.28125 34.8125 
Q 5.28125 39.015625 9.578125 42.53125 
Q 13.875 46.046875 21.625 46.046875 
Q 27.59375 46.046875 31.390625 44.046875 
Q 34.28125 42.53125 35.640625 39.3125 
Q 36.53125 37.203125 36.53125 30.71875 
L 36.53125 15.53125 
Q 36.53125 9.125 36.765625 7.6875 
Q 37.015625 6.25 37.578125 5.765625 
Q 38.140625 5.28125 38.875 5.28125 
Q 39.65625 5.28125 40.234375 5.609375 
Q 41.265625 6.25 44.1875 9.1875 
L 44.1875 6.453125 
Q 38.71875 -0.875 33.734375 -0.875 
Q 31.34375 -0.875 29.921875 0.78125 
Q 28.515625 2.4375 28.46875 6.453125 
z
M 28.46875 9.625 
L 28.46875 26.65625 
Q 21.09375 23.734375 18.953125 22.515625 
Q 15.09375 20.359375 13.421875 18.015625 
Q 11.765625 15.671875 11.765625 12.890625 
Q 11.765625 9.375 13.859375 7.046875 
Q 15.96875 4.734375 18.703125 4.734375 
Q 22.40625 4.734375 28.46875 9.625 
z
" id="TimesNewRomanPSMT-97"/>
        <path d="M 14.5 69.4375 
Q 16.546875 69.4375 17.984375 67.984375 
Q 19.4375 66.546875 19.4375 64.5 
Q 19.4375 62.453125 17.984375 60.984375 
Q 16.546875 59.515625 14.5 59.515625 
Q 12.453125 59.515625 10.984375 60.984375 
Q 9.515625 62.453125 9.515625 64.5 
Q 9.515625 66.546875 10.953125 67.984375 
Q 12.40625 69.4375 14.5 69.4375 
z
M 18.5625 46.046875 
L 18.5625 10.109375 
Q 18.5625 5.90625 19.171875 4.515625 
Q 19.78125 3.125 20.96875 2.4375 
Q 22.171875 1.765625 25.34375 1.765625 
L 25.34375 0 
L 3.609375 0 
L 3.609375 1.765625 
Q 6.890625 1.765625 8 2.390625 
Q 9.125 3.03125 9.78125 4.484375 
Q 10.453125 5.953125 10.453125 10.109375 
L 10.453125 27.34375 
Q 10.453125 34.625 10.015625 36.765625 
Q 9.671875 38.328125 8.9375 38.9375 
Q 8.203125 39.546875 6.9375 39.546875 
Q 5.5625 39.546875 3.609375 38.8125 
L 2.9375 40.578125 
L 16.40625 46.046875 
z
" id="TimesNewRomanPSMT-105"/>
        <path d="M 16.15625 36.578125 
Q 24.03125 46.046875 31.15625 46.046875 
Q 34.8125 46.046875 37.453125 44.21875 
Q 40.09375 42.390625 41.65625 38.1875 
Q 42.71875 35.25 42.71875 29.203125 
L 42.71875 10.109375 
Q 42.71875 5.859375 43.40625 4.34375 
Q 43.953125 3.125 45.140625 2.4375 
Q 46.34375 1.765625 49.5625 1.765625 
L 49.5625 0 
L 27.4375 0 
L 27.4375 1.765625 
L 28.375 1.765625 
Q 31.5 1.765625 32.734375 2.703125 
Q 33.984375 3.65625 34.46875 5.515625 
Q 34.671875 6.25 34.671875 10.109375 
L 34.671875 28.421875 
Q 34.671875 34.515625 33.078125 37.28125 
Q 31.5 40.046875 27.734375 40.046875 
Q 21.921875 40.046875 16.15625 33.6875 
L 16.15625 10.109375 
Q 16.15625 5.5625 16.703125 4.5 
Q 17.390625 3.078125 18.578125 2.421875 
Q 19.78125 1.765625 23.4375 1.765625 
L 23.4375 0 
L 1.3125 0 
L 1.3125 1.765625 
L 2.296875 1.765625 
Q 5.71875 1.765625 6.90625 3.484375 
Q 8.109375 5.21875 8.109375 10.109375 
L 8.109375 26.703125 
Q 8.109375 34.765625 7.734375 36.515625 
Q 7.375 38.28125 6.609375 38.90625 
Q 5.859375 39.546875 4.59375 39.546875 
Q 3.21875 39.546875 1.3125 38.8125 
L 0.59375 40.578125 
L 14.0625 46.046875 
L 16.15625 46.046875 
z
" id="TimesNewRomanPSMT-110"/>
        <path d="M 15.09375 16.3125 
Q 10.984375 18.3125 8.78125 21.890625 
Q 6.59375 25.484375 6.59375 29.828125 
Q 6.59375 36.46875 11.59375 41.25 
Q 16.609375 46.046875 24.421875 46.046875 
Q 30.8125 46.046875 35.5 42.921875 
L 44.96875 42.921875 
Q 47.078125 42.921875 47.40625 42.796875 
Q 47.75 42.671875 47.90625 42.390625 
Q 48.1875 41.9375 48.1875 40.828125 
Q 48.1875 39.546875 47.953125 39.0625 
Q 47.796875 38.8125 47.4375 38.671875 
Q 47.078125 38.53125 44.96875 38.53125 
L 39.15625 38.53125 
Q 41.890625 35.015625 41.890625 29.546875 
Q 41.890625 23.296875 37.109375 18.84375 
Q 32.328125 14.40625 24.265625 14.40625 
Q 20.953125 14.40625 17.484375 15.375 
Q 15.328125 13.53125 14.5625 12.140625 
Q 13.8125 10.75 13.8125 9.765625 
Q 13.8125 8.9375 14.625 8.15625 
Q 15.4375 7.375 17.78125 7.03125 
Q 19.140625 6.84375 24.609375 6.6875 
Q 34.671875 6.453125 37.640625 6 
Q 42.1875 5.375 44.890625 2.640625 
Q 47.609375 -0.09375 47.609375 -4.109375 
Q 47.609375 -9.625 42.4375 -14.453125 
Q 34.8125 -21.578125 22.5625 -21.578125 
Q 13.140625 -21.578125 6.640625 -17.328125 
Q 2.984375 -14.890625 2.984375 -12.25 
Q 2.984375 -11.078125 3.515625 -9.90625 
Q 4.34375 -8.109375 6.9375 -4.890625 
Q 7.28125 -4.4375 11.921875 0.390625 
Q 9.375 1.90625 8.328125 3.09375 
Q 7.28125 4.296875 7.28125 5.8125 
Q 7.28125 7.515625 8.671875 9.8125 
Q 10.0625 12.109375 15.09375 16.3125 
z
M 23.578125 43.703125 
Q 19.96875 43.703125 17.53125 40.8125 
Q 15.09375 37.9375 15.09375 31.984375 
Q 15.09375 24.265625 18.40625 20.015625 
Q 20.953125 16.796875 24.859375 16.796875 
Q 28.5625 16.796875 30.953125 19.578125 
Q 33.34375 22.359375 33.34375 28.328125 
Q 33.34375 36.078125 29.984375 40.484375 
Q 27.484375 43.703125 23.578125 43.703125 
z
M 14.59375 0 
Q 12.3125 -2.484375 11.140625 -4.625 
Q 9.96875 -6.78125 9.96875 -8.59375 
Q 9.96875 -10.9375 12.796875 -12.703125 
Q 17.671875 -15.71875 26.90625 -15.71875 
Q 35.6875 -15.71875 39.859375 -12.609375 
Q 44.046875 -9.515625 44.046875 -6 
Q 44.046875 -3.46875 41.546875 -2.390625 
Q 39.015625 -1.3125 31.5 -1.125 
Q 20.515625 -0.828125 14.59375 0 
z
" id="TimesNewRomanPSMT-103"/>
        <path id="TimesNewRomanPSMT-32"/>
        <path d="M 0.640625 44.734375 
L 19.390625 44.734375 
L 19.390625 42.921875 
Q 16.796875 42.71875 15.984375 41.984375 
Q 15.1875 41.265625 15.1875 39.890625 
Q 15.1875 38.375 16.015625 36.234375 
L 25.59375 10.5 
L 35.203125 31.453125 
L 32.671875 38.03125 
Q 31.5 40.96875 29.59375 42.09375 
Q 28.515625 42.78125 25.59375 42.921875 
L 25.59375 44.734375 
L 46.875 44.734375 
L 46.875 42.921875 
Q 43.359375 42.78125 41.890625 41.65625 
Q 40.921875 40.875 40.921875 39.15625 
Q 40.921875 38.1875 41.3125 37.15625 
L 51.46875 11.46875 
L 60.890625 36.234375 
Q 61.859375 38.875 61.859375 40.4375 
Q 61.859375 41.359375 60.90625 42.09375 
Q 59.96875 42.828125 57.171875 42.921875 
L 57.171875 44.734375 
L 71.296875 44.734375 
L 71.296875 42.921875 
Q 67.046875 42.28125 65.046875 37.15625 
L 50.09375 -1.375 
L 48.09375 -1.375 
L 36.921875 27.203125 
L 23.875 -1.375 
L 22.078125 -1.375 
L 7.71875 36.234375 
Q 6.296875 39.796875 4.921875 41.03125 
Q 3.5625 42.28125 0.640625 42.921875 
z
" id="TimesNewRomanPSMT-119"/>
        <path d="M 16.109375 59.421875 
L 16.109375 44.734375 
L 26.5625 44.734375 
L 26.5625 41.3125 
L 16.109375 41.3125 
L 16.109375 12.3125 
Q 16.109375 7.953125 17.359375 6.4375 
Q 18.609375 4.9375 20.5625 4.9375 
Q 22.171875 4.9375 23.6875 5.9375 
Q 25.203125 6.9375 26.03125 8.890625 
L 27.9375 8.890625 
Q 26.21875 4.109375 23.09375 1.6875 
Q 19.96875 -0.734375 16.65625 -0.734375 
Q 14.40625 -0.734375 12.25 0.515625 
Q 10.109375 1.765625 9.078125 4.078125 
Q 8.0625 6.390625 8.0625 11.234375 
L 8.0625 41.3125 
L 0.984375 41.3125 
L 0.984375 42.921875 
Q 3.65625 44 6.46875 46.5625 
Q 9.28125 49.125 11.46875 52.640625 
Q 12.59375 54.5 14.59375 59.421875 
z
" id="TimesNewRomanPSMT-116"/>
        <path d="M 16.265625 69.4375 
L 16.265625 36.71875 
Q 21.6875 42.671875 24.859375 44.359375 
Q 28.03125 46.046875 31.203125 46.046875 
Q 35.015625 46.046875 37.75 43.9375 
Q 40.484375 41.84375 41.796875 37.359375 
Q 42.71875 34.234375 42.71875 25.921875 
L 42.71875 10.109375 
Q 42.71875 5.859375 43.40625 4.296875 
Q 43.890625 3.125 45.0625 2.4375 
Q 46.234375 1.765625 49.359375 1.765625 
L 49.359375 0 
L 27.390625 0 
L 27.390625 1.765625 
L 28.421875 1.765625 
Q 31.546875 1.765625 32.765625 2.703125 
Q 33.984375 3.65625 34.46875 5.515625 
Q 34.625 6.296875 34.625 10.109375 
L 34.625 25.921875 
Q 34.625 33.25 33.859375 35.546875 
Q 33.109375 37.84375 31.4375 38.984375 
Q 29.78125 40.140625 27.4375 40.140625 
Q 25.046875 40.140625 22.453125 38.859375 
Q 19.875 37.59375 16.265625 33.734375 
L 16.265625 10.109375 
Q 16.265625 5.515625 16.765625 4.390625 
Q 17.28125 3.265625 18.671875 2.515625 
Q 20.0625 1.765625 23.484375 1.765625 
L 23.484375 0 
L 1.3125 0 
L 1.3125 1.765625 
Q 4.296875 1.765625 6 2.6875 
Q 6.984375 3.171875 7.5625 4.53125 
Q 8.15625 5.90625 8.15625 10.109375 
L 8.15625 50.59375 
Q 8.15625 58.25 7.78125 60 
Q 7.421875 61.765625 6.65625 62.390625 
Q 5.90625 63.03125 4.640625 63.03125 
Q 3.609375 63.03125 1.3125 62.25 
L 0.640625 63.96875 
L 14.015625 69.4375 
z
" id="TimesNewRomanPSMT-104"/>
        <path d="M 25 46.046875 
Q 35.15625 46.046875 41.3125 38.328125 
Q 46.53125 31.734375 46.53125 23.1875 
Q 46.53125 17.1875 43.640625 11.03125 
Q 40.765625 4.890625 35.71875 1.75 
Q 30.671875 -1.375 24.46875 -1.375 
Q 14.359375 -1.375 8.40625 6.6875 
Q 3.375 13.484375 3.375 21.921875 
Q 3.375 28.078125 6.421875 34.15625 
Q 9.46875 40.234375 14.453125 43.140625 
Q 19.4375 46.046875 25 46.046875 
z
M 23.484375 42.875 
Q 20.90625 42.875 18.28125 41.328125 
Q 15.671875 39.796875 14.0625 35.9375 
Q 12.453125 32.078125 12.453125 26.03125 
Q 12.453125 16.265625 16.328125 9.171875 
Q 20.21875 2.09375 26.5625 2.09375 
Q 31.296875 2.09375 34.375 6 
Q 37.453125 9.90625 37.453125 19.4375 
Q 37.453125 31.34375 32.328125 38.1875 
Q 28.859375 42.875 23.484375 42.875 
z
" id="TimesNewRomanPSMT-111"/>
        <path d="M 42.328125 44.734375 
L 42.328125 17.625 
Q 42.328125 9.859375 42.6875 8.125 
Q 43.0625 6.390625 43.859375 5.703125 
Q 44.671875 5.03125 45.75 5.03125 
Q 47.265625 5.03125 49.171875 5.859375 
L 49.859375 4.15625 
L 36.46875 -1.375 
L 34.28125 -1.375 
L 34.28125 8.109375 
Q 28.515625 1.859375 25.484375 0.234375 
Q 22.46875 -1.375 19.09375 -1.375 
Q 15.328125 -1.375 12.5625 0.796875 
Q 9.8125 2.984375 8.734375 6.390625 
Q 7.671875 9.8125 7.671875 16.0625 
L 7.671875 36.03125 
Q 7.671875 39.203125 6.984375 40.421875 
Q 6.296875 41.65625 4.953125 42.3125 
Q 3.609375 42.96875 0.09375 42.921875 
L 0.09375 44.734375 
L 15.765625 44.734375 
L 15.765625 14.796875 
Q 15.765625 8.546875 17.9375 6.59375 
Q 20.125 4.640625 23.1875 4.640625 
Q 25.296875 4.640625 27.953125 5.953125 
Q 30.609375 7.28125 34.28125 10.984375 
L 34.28125 36.328125 
Q 34.28125 40.140625 32.890625 41.484375 
Q 31.5 42.828125 27.09375 42.921875 
L 27.09375 44.734375 
z
" id="TimesNewRomanPSMT-117"/>
        <path d="M 34.71875 5.03125 
Q 31.453125 1.609375 28.328125 0.109375 
Q 25.203125 -1.375 21.578125 -1.375 
Q 14.265625 -1.375 8.796875 4.75 
Q 3.328125 10.890625 3.328125 20.515625 
Q 3.328125 30.125 9.375 38.109375 
Q 15.4375 46.09375 24.953125 46.09375 
Q 30.859375 46.09375 34.71875 42.328125 
L 34.71875 50.59375 
Q 34.71875 58.25 34.34375 60 
Q 33.984375 61.765625 33.203125 62.390625 
Q 32.421875 63.03125 31.25 63.03125 
Q 29.984375 63.03125 27.875 62.25 
L 27.25 63.96875 
L 40.578125 69.4375 
L 42.78125 69.4375 
L 42.78125 17.71875 
Q 42.78125 9.859375 43.140625 8.125 
Q 43.5 6.390625 44.3125 5.703125 
Q 45.125 5.03125 46.1875 5.03125 
Q 47.515625 5.03125 49.703125 5.859375 
L 50.25 4.15625 
L 36.96875 -1.375 
L 34.71875 -1.375 
z
M 34.71875 8.453125 
L 34.71875 31.5 
Q 34.421875 34.8125 32.953125 37.546875 
Q 31.5 40.28125 29.078125 41.671875 
Q 26.65625 43.0625 24.359375 43.0625 
Q 20.0625 43.0625 16.703125 39.203125 
Q 12.25 34.125 12.25 24.359375 
Q 12.25 14.5 16.546875 9.25 
Q 20.84375 4 26.125 4 
Q 30.5625 4 34.71875 8.453125 
z
" id="TimesNewRomanPSMT-100"/>
        <path d="M 32.03125 46.046875 
L 32.03125 30.8125 
L 30.421875 30.8125 
Q 28.5625 37.984375 25.65625 40.578125 
Q 22.75 43.171875 18.265625 43.171875 
Q 14.84375 43.171875 12.734375 41.359375 
Q 10.640625 39.546875 10.640625 37.359375 
Q 10.640625 34.625 12.203125 32.671875 
Q 13.71875 30.671875 18.359375 28.421875 
L 25.484375 24.953125 
Q 35.40625 20.125 35.40625 12.203125 
Q 35.40625 6.109375 30.78125 2.359375 
Q 26.171875 -1.375 20.453125 -1.375 
Q 16.359375 -1.375 11.078125 0.09375 
Q 9.46875 0.59375 8.453125 0.59375 
Q 7.328125 0.59375 6.6875 -0.6875 
L 5.078125 -0.6875 
L 5.078125 15.28125 
L 6.6875 15.28125 
Q 8.0625 8.453125 11.90625 4.984375 
Q 15.765625 1.515625 20.5625 1.515625 
Q 23.921875 1.515625 26.046875 3.484375 
Q 28.171875 5.46875 28.171875 8.25 
Q 28.171875 11.625 25.796875 13.921875 
Q 23.4375 16.21875 16.359375 19.734375 
Q 9.28125 23.25 7.078125 26.078125 
Q 4.890625 28.859375 4.890625 33.109375 
Q 4.890625 38.625 8.671875 42.328125 
Q 12.453125 46.046875 18.453125 46.046875 
Q 21.09375 46.046875 24.859375 44.921875 
Q 27.34375 44.1875 28.171875 44.1875 
Q 28.953125 44.1875 29.390625 44.53125 
Q 29.828125 44.875 30.421875 46.046875 
z
" id="TimesNewRomanPSMT-115"/>
       </defs>
       <use xlink:href="#TimesNewRomanPSMT-82"/>
       <use x="66.699219" xlink:href="#TimesNewRomanPSMT-97"/>
       <use x="111.083984" xlink:href="#TimesNewRomanPSMT-105"/>
       <use x="138.867188" xlink:href="#TimesNewRomanPSMT-110"/>
       <use x="188.867188" xlink:href="#TimesNewRomanPSMT-105"/>
       <use x="216.650391" xlink:href="#TimesNewRomanPSMT-110"/>
       <use x="266.650391" xlink:href="#TimesNewRomanPSMT-103"/>
       <use x="316.650391" xlink:href="#TimesNewRomanPSMT-32"/>
       <use x="341.650391" xlink:href="#TimesNewRomanPSMT-119"/>
       <use x="413.867188" xlink:href="#TimesNewRomanPSMT-105"/>
       <use x="441.650391" xlink:href="#TimesNewRomanPSMT-116"/>
       <use x="469.433594" xlink:href="#TimesNewRomanPSMT-104"/>
       <use x="519.433594" xlink:href="#TimesNewRomanPSMT-111"/>
       <use x="569.433594" xlink:href="#TimesNewRomanPSMT-117"/>
       <use x="619.433594" xlink:href="#TimesNewRomanPSMT-116"/>
       <use x="647.216797" xlink:href="#TimesNewRomanPSMT-32"/>
       <use x="672.216797" xlink:href="#TimesNewRomanPSMT-104"/>
       <use x="722.216797" xlink:href="#TimesNewRomanPSMT-105"/>
       <use x="750" xlink:href="#TimesNewRomanPSMT-103"/>
       <use x="800" xlink:href="#TimesNewRomanPSMT-104"/>
       <use x="850" xlink:href="#TimesNewRomanPSMT-32"/>
       <use x="875" xlink:href="#TimesNewRomanPSMT-119"/>
       <use x="947.216797" xlink:href="#TimesNewRomanPSMT-105"/>
       <use x="975" xlink:href="#TimesNewRomanPSMT-110"/>
       <use x="1025" xlink:href="#TimesNewRomanPSMT-100"/>
       <use x="1075" xlink:href="#TimesNewRomanPSMT-115"/>
      </g>
     </g>
    </g>
    <g id="xtick_2">
     <g id="line2d_3">
      <g>
       <use style="stroke:#000000;stroke-width:0.5;" x="279.265625" xlink:href="#m628eb9a730" y="559.92125"/>
      </g>
     </g>
     <g id="line2d_4">
      <g>
       <use style="stroke:#000000;stroke-width:0.5;" x="279.265625" xlink:href="#ma19d101c48" y="16.32125"/>
      </g>
     </g>
     <g id="text_2">
      <!-- Fine without high winds -->
      <g transform="translate(211.012344 573.1425)scale(0.14 -0.14)">
       <defs>
        <path d="M 20.453125 62.59375 
L 20.453125 36.578125 
L 32.515625 36.578125 
Q 36.671875 36.578125 38.59375 38.40625 
Q 40.53125 40.234375 41.15625 45.65625 
L 42.96875 45.65625 
L 42.96875 23.25 
L 41.15625 23.25 
Q 41.109375 27.09375 40.15625 28.90625 
Q 39.203125 30.71875 37.515625 31.609375 
Q 35.84375 32.515625 32.515625 32.515625 
L 20.453125 32.515625 
L 20.453125 11.71875 
Q 20.453125 6.6875 21.09375 5.078125 
Q 21.578125 3.859375 23.140625 2.984375 
Q 25.296875 1.8125 27.640625 1.8125 
L 30.03125 1.8125 
L 30.03125 0 
L 1.609375 0 
L 1.609375 1.8125 
L 3.953125 1.8125 
Q 8.0625 1.8125 9.90625 4.203125 
Q 11.078125 5.765625 11.078125 11.71875 
L 11.078125 54.5 
Q 11.078125 59.515625 10.453125 61.140625 
Q 9.96875 62.359375 8.453125 63.234375 
Q 6.34375 64.40625 3.953125 64.40625 
L 1.609375 64.40625 
L 1.609375 66.21875 
L 50.875 66.21875 
L 51.515625 51.65625 
L 49.8125 51.65625 
Q 48.53125 56.296875 46.84375 58.46875 
Q 45.171875 60.640625 42.703125 61.609375 
Q 40.234375 62.59375 35.0625 62.59375 
z
" id="TimesNewRomanPSMT-70"/>
        <path d="M 10.640625 27.875 
Q 10.59375 17.921875 15.484375 12.25 
Q 20.359375 6.59375 26.953125 6.59375 
Q 31.34375 6.59375 34.59375 9 
Q 37.84375 11.421875 40.046875 17.28125 
L 41.546875 16.3125 
Q 40.53125 9.625 35.59375 4.125 
Q 30.671875 -1.375 23.25 -1.375 
Q 15.1875 -1.375 9.453125 4.90625 
Q 3.71875 11.1875 3.71875 21.78125 
Q 3.71875 33.25 9.59375 39.671875 
Q 15.484375 46.09375 24.359375 46.09375 
Q 31.890625 46.09375 36.71875 41.140625 
Q 41.546875 36.1875 41.546875 27.875 
z
M 10.640625 30.71875 
L 31.34375 30.71875 
Q 31.109375 35.015625 30.328125 36.765625 
Q 29.109375 39.5 26.6875 41.0625 
Q 24.265625 42.625 21.625 42.625 
Q 17.578125 42.625 14.375 39.46875 
Q 11.1875 36.328125 10.640625 30.71875 
z
" id="TimesNewRomanPSMT-101"/>
       </defs>
       <use xlink:href="#TimesNewRomanPSMT-70"/>
       <use x="55.615234" xlink:href="#TimesNewRomanPSMT-105"/>
       <use x="83.398438" xlink:href="#TimesNewRomanPSMT-110"/>
       <use x="133.398438" xlink:href="#TimesNewRomanPSMT-101"/>
       <use x="177.783203" xlink:href="#TimesNewRomanPSMT-32"/>
       <use x="202.783203" xlink:href="#TimesNewRomanPSMT-119"/>
       <use x="275" xlink:href="#TimesNewRomanPSMT-105"/>
       <use x="302.783203" xlink:href="#TimesNewRomanPSMT-116"/>
       <use x="330.566406" xlink:href="#TimesNewRomanPSMT-104"/>
       <use x="380.566406" xlink:href="#TimesNewRomanPSMT-111"/>
       <use x="430.566406" xlink:href="#TimesNewRomanPSMT-117"/>
       <use x="480.566406" xlink:href="#TimesNewRomanPSMT-116"/>
       <use x="508.349609" xlink:href="#TimesNewRomanPSMT-32"/>
       <use x="533.349609" xlink:href="#TimesNewRomanPSMT-104"/>
       <use x="583.349609" xlink:href="#TimesNewRomanPSMT-105"/>
       <use x="611.132812" xlink:href="#TimesNewRomanPSMT-103"/>
       <use x="661.132812" xlink:href="#TimesNewRomanPSMT-104"/>
       <use x="711.132812" xlink:href="#TimesNewRomanPSMT-32"/>
       <use x="736.132812" xlink:href="#TimesNewRomanPSMT-119"/>
       <use x="808.349609" xlink:href="#TimesNewRomanPSMT-105"/>
       <use x="836.132812" xlink:href="#TimesNewRomanPSMT-110"/>
       <use x="886.132812" xlink:href="#TimesNewRomanPSMT-100"/>
       <use x="936.132812" xlink:href="#TimesNewRomanPSMT-115"/>
      </g>
     </g>
    </g>
    <g id="xtick_3">
     <g id="line2d_5">
      <g>
       <use style="stroke:#000000;stroke-width:0.5;" x="434.265625" xlink:href="#m628eb9a730" y="559.92125"/>
      </g>
     </g>
     <g id="line2d_6">
      <g>
       <use style="stroke:#000000;stroke-width:0.5;" x="434.265625" xlink:href="#ma19d101c48" y="16.32125"/>
      </g>
     </g>
     <g id="text_3">
      <!-- Unknown -->
      <g transform="translate(406.655 573.1425)scale(0.14 -0.14)">
       <defs>
        <path d="M 47.703125 64.40625 
L 47.703125 66.21875 
L 71.140625 66.21875 
L 71.140625 64.40625 
L 68.65625 64.40625 
Q 64.75 64.40625 62.640625 61.140625 
Q 61.625 59.625 61.625 54.109375 
L 61.625 27.25 
Q 61.625 17.28125 59.640625 11.78125 
Q 57.671875 6.296875 51.875 2.359375 
Q 46.09375 -1.5625 36.140625 -1.5625 
Q 25.296875 -1.5625 19.671875 2.1875 
Q 14.0625 5.953125 11.71875 12.3125 
Q 10.15625 16.65625 10.15625 28.609375 
L 10.15625 54.5 
Q 10.15625 60.59375 8.46875 62.5 
Q 6.78125 64.40625 3.03125 64.40625 
L 0.53125 64.40625 
L 0.53125 66.21875 
L 29.15625 66.21875 
L 29.15625 64.40625 
L 26.609375 64.40625 
Q 22.515625 64.40625 20.75 61.8125 
Q 19.53125 60.0625 19.53125 54.5 
L 19.53125 25.640625 
Q 19.53125 21.78125 20.234375 16.796875 
Q 20.953125 11.8125 22.796875 9.03125 
Q 24.65625 6.25 28.140625 4.4375 
Q 31.640625 2.640625 36.71875 2.640625 
Q 43.21875 2.640625 48.34375 5.46875 
Q 53.46875 8.296875 55.34375 12.71875 
Q 57.234375 17.140625 57.234375 27.6875 
L 57.234375 54.5 
Q 57.234375 60.6875 55.859375 62.25 
Q 53.953125 64.40625 50.203125 64.40625 
z
" id="TimesNewRomanPSMT-85"/>
        <path d="M 16.359375 69.4375 
L 16.359375 24.953125 
L 27.734375 35.296875 
Q 31.34375 38.625 31.9375 39.5 
Q 32.328125 40.09375 32.328125 40.671875 
Q 32.328125 41.65625 31.515625 42.359375 
Q 30.71875 43.0625 28.859375 43.171875 
L 28.859375 44.734375 
L 48.296875 44.734375 
L 48.296875 43.171875 
Q 44.28125 43.0625 41.625 41.9375 
Q 38.96875 40.828125 35.796875 37.9375 
L 24.3125 27.34375 
L 35.796875 12.84375 
Q 40.578125 6.84375 42.234375 5.21875 
Q 44.578125 2.9375 46.34375 2.25 
Q 47.5625 1.765625 50.59375 1.765625 
L 50.59375 0 
L 28.859375 0 
L 28.859375 1.765625 
Q 30.71875 1.8125 31.375 2.3125 
Q 32.03125 2.828125 32.03125 3.765625 
Q 32.03125 4.890625 30.078125 7.375 
L 16.359375 24.90625 
L 16.359375 10.0625 
Q 16.359375 5.71875 16.96875 4.34375 
Q 17.578125 2.984375 18.703125 2.390625 
Q 19.828125 1.8125 23.578125 1.765625 
L 23.578125 0 
L 0.828125 0 
L 0.828125 1.765625 
Q 4.25 1.765625 5.953125 2.59375 
Q 6.984375 3.125 7.515625 4.25 
Q 8.25 5.859375 8.25 9.8125 
L 8.25 50.53125 
Q 8.25 58.296875 7.90625 60.03125 
Q 7.5625 61.765625 6.78125 62.421875 
Q 6 63.09375 4.734375 63.09375 
Q 3.71875 63.09375 1.65625 62.25 
L 0.828125 63.96875 
L 14.109375 69.4375 
z
" id="TimesNewRomanPSMT-107"/>
       </defs>
       <use xlink:href="#TimesNewRomanPSMT-85"/>
       <use x="72.216797" xlink:href="#TimesNewRomanPSMT-110"/>
       <use x="122.216797" xlink:href="#TimesNewRomanPSMT-107"/>
       <use x="172.216797" xlink:href="#TimesNewRomanPSMT-110"/>
       <use x="222.216797" xlink:href="#TimesNewRomanPSMT-111"/>
       <use x="272.216797" xlink:href="#TimesNewRomanPSMT-119"/>
       <use x="344.433594" xlink:href="#TimesNewRomanPSMT-110"/>
      </g>
     </g>
    </g>
    <g id="xtick_4">
     <g id="line2d_7">
      <g>
       <use style="stroke:#000000;stroke-width:0.5;" x="589.265625" xlink:href="#m628eb9a730" y="559.92125"/>
      </g>
     </g>
     <g id="line2d_8">
      <g>
       <use style="stroke:#000000;stroke-width:0.5;" x="589.265625" xlink:href="#ma19d101c48" y="16.32125"/>
      </g>
     </g>
     <g id="text_4">
      <!-- Snowing without high winds -->
      <g transform="translate(508.564375 573.1425)scale(0.14 -0.14)">
       <defs>
        <path d="M 45.84375 67.71875 
L 45.84375 44.828125 
L 44.046875 44.828125 
Q 43.171875 51.421875 40.890625 55.328125 
Q 38.625 59.234375 34.421875 61.515625 
Q 30.21875 63.8125 25.734375 63.8125 
Q 20.65625 63.8125 17.328125 60.71875 
Q 14.015625 57.625 14.015625 53.65625 
Q 14.015625 50.640625 16.109375 48.140625 
Q 19.140625 44.484375 30.515625 38.375 
Q 39.796875 33.40625 43.1875 30.734375 
Q 46.578125 28.078125 48.40625 24.453125 
Q 50.25 20.84375 50.25 16.890625 
Q 50.25 9.375 44.40625 3.921875 
Q 38.578125 -1.515625 29.390625 -1.515625 
Q 26.515625 -1.515625 23.96875 -1.078125 
Q 22.46875 -0.828125 17.703125 0.703125 
Q 12.9375 2.25 11.671875 2.25 
Q 10.453125 2.25 9.734375 1.515625 
Q 9.03125 0.78125 8.6875 -1.515625 
L 6.890625 -1.515625 
L 6.890625 21.1875 
L 8.6875 21.1875 
Q 9.96875 14.0625 12.109375 10.515625 
Q 14.265625 6.984375 18.671875 4.640625 
Q 23.09375 2.296875 28.375 2.296875 
Q 34.46875 2.296875 38 5.515625 
Q 41.546875 8.734375 41.546875 13.140625 
Q 41.546875 15.578125 40.203125 18.0625 
Q 38.875 20.5625 36.03125 22.703125 
Q 34.125 24.171875 25.625 28.921875 
Q 17.140625 33.6875 13.546875 36.515625 
Q 9.96875 39.359375 8.109375 42.765625 
Q 6.25 46.1875 6.25 50.296875 
Q 6.25 57.421875 11.71875 62.5625 
Q 17.1875 67.71875 25.640625 67.71875 
Q 30.90625 67.71875 36.8125 65.140625 
Q 39.546875 63.921875 40.671875 63.921875 
Q 41.9375 63.921875 42.75 64.671875 
Q 43.5625 65.4375 44.046875 67.71875 
z
" id="TimesNewRomanPSMT-83"/>
       </defs>
       <use xlink:href="#TimesNewRomanPSMT-83"/>
       <use x="55.615234" xlink:href="#TimesNewRomanPSMT-110"/>
       <use x="105.615234" xlink:href="#TimesNewRomanPSMT-111"/>
       <use x="155.615234" xlink:href="#TimesNewRomanPSMT-119"/>
       <use x="227.832031" xlink:href="#TimesNewRomanPSMT-105"/>
       <use x="255.615234" xlink:href="#TimesNewRomanPSMT-110"/>
       <use x="305.615234" xlink:href="#TimesNewRomanPSMT-103"/>
       <use x="355.615234" xlink:href="#TimesNewRomanPSMT-32"/>
       <use x="380.615234" xlink:href="#TimesNewRomanPSMT-119"/>
       <use x="452.832031" xlink:href="#TimesNewRomanPSMT-105"/>
       <use x="480.615234" xlink:href="#TimesNewRomanPSMT-116"/>
       <use x="508.398438" xlink:href="#TimesNewRomanPSMT-104"/>
       <use x="558.398438" xlink:href="#TimesNewRomanPSMT-111"/>
       <use x="608.398438" xlink:href="#TimesNewRomanPSMT-117"/>
       <use x="658.398438" xlink:href="#TimesNewRomanPSMT-116"/>
       <use x="686.181641" xlink:href="#TimesNewRomanPSMT-32"/>
       <use x="711.181641" xlink:href="#TimesNewRomanPSMT-104"/>
       <use x="761.181641" xlink:href="#TimesNewRomanPSMT-105"/>
       <use x="788.964844" xlink:href="#TimesNewRomanPSMT-103"/>
       <use x="838.964844" xlink:href="#TimesNewRomanPSMT-104"/>
       <use x="888.964844" xlink:href="#TimesNewRomanPSMT-32"/>
       <use x="913.964844" xlink:href="#TimesNewRomanPSMT-119"/>
       <use x="986.181641" xlink:href="#TimesNewRomanPSMT-105"/>
       <use x="1013.964844" xlink:href="#TimesNewRomanPSMT-110"/>
       <use x="1063.964844" xlink:href="#TimesNewRomanPSMT-100"/>
       <use x="1113.964844" xlink:href="#TimesNewRomanPSMT-115"/>
      </g>
     </g>
    </g>
    <g id="xtick_5">
     <g id="line2d_9">
      <g>
       <use style="stroke:#000000;stroke-width:0.5;" x="744.265625" xlink:href="#m628eb9a730" y="559.92125"/>
      </g>
     </g>
     <g id="line2d_10">
      <g>
       <use style="stroke:#000000;stroke-width:0.5;" x="744.265625" xlink:href="#ma19d101c48" y="16.32125"/>
      </g>
     </g>
     <g id="text_5">
      <!-- Other -->
      <g transform="translate(728.3275 573.1425)scale(0.14 -0.14)">
       <defs>
        <path d="M 36.578125 67.71875 
Q 49.46875 67.71875 58.90625 57.921875 
Q 68.359375 48.140625 68.359375 33.5 
Q 68.359375 18.40625 58.828125 8.4375 
Q 49.3125 -1.515625 35.796875 -1.515625 
Q 22.125 -1.515625 12.8125 8.203125 
Q 3.515625 17.921875 3.515625 33.34375 
Q 3.515625 49.125 14.265625 59.078125 
Q 23.578125 67.71875 36.578125 67.71875 
z
M 35.640625 64.15625 
Q 26.765625 64.15625 21.390625 57.5625 
Q 14.703125 49.359375 14.703125 33.546875 
Q 14.703125 17.328125 21.625 8.59375 
Q 26.953125 1.953125 35.6875 1.953125 
Q 45.015625 1.953125 51.09375 9.21875 
Q 57.171875 16.5 57.171875 32.171875 
Q 57.171875 49.171875 50.484375 57.515625 
Q 45.125 64.15625 35.640625 64.15625 
z
" id="TimesNewRomanPSMT-79"/>
        <path d="M 16.21875 46.046875 
L 16.21875 35.984375 
Q 21.828125 46.046875 27.734375 46.046875 
Q 30.421875 46.046875 32.171875 44.40625 
Q 33.9375 42.78125 33.9375 40.625 
Q 33.9375 38.71875 32.65625 37.390625 
Q 31.390625 36.078125 29.640625 36.078125 
Q 27.9375 36.078125 25.8125 37.765625 
Q 23.6875 39.453125 22.65625 39.453125 
Q 21.78125 39.453125 20.75 38.484375 
Q 18.5625 36.46875 16.21875 31.890625 
L 16.21875 10.453125 
Q 16.21875 6.734375 17.140625 4.828125 
Q 17.78125 3.515625 19.390625 2.640625 
Q 21 1.765625 24.03125 1.765625 
L 24.03125 0 
L 1.125 0 
L 1.125 1.765625 
Q 4.546875 1.765625 6.203125 2.828125 
Q 7.421875 3.609375 7.90625 5.328125 
Q 8.15625 6.15625 8.15625 10.0625 
L 8.15625 27.390625 
Q 8.15625 35.203125 7.828125 36.6875 
Q 7.515625 38.1875 6.65625 38.859375 
Q 5.8125 39.546875 4.546875 39.546875 
Q 3.03125 39.546875 1.125 38.8125 
L 0.640625 40.578125 
L 14.15625 46.046875 
z
" id="TimesNewRomanPSMT-114"/>
       </defs>
       <use xlink:href="#TimesNewRomanPSMT-79"/>
       <use x="72.216797" xlink:href="#TimesNewRomanPSMT-116"/>
       <use x="100" xlink:href="#TimesNewRomanPSMT-104"/>
       <use x="150" xlink:href="#TimesNewRomanPSMT-101"/>
       <use x="194.384766" xlink:href="#TimesNewRomanPSMT-114"/>
      </g>
     </g>
    </g>
    <g id="xtick_6">
     <g id="line2d_11">
      <g>
       <use style="stroke:#000000;stroke-width:0.5;" x="899.265625" xlink:href="#m628eb9a730" y="559.92125"/>
      </g>
     </g>
     <g id="line2d_12">
      <g>
       <use style="stroke:#000000;stroke-width:0.5;" x="899.265625" xlink:href="#ma19d101c48" y="16.32125"/>
      </g>
     </g>
     <g id="text_6">
      <!-- Fine with high winds -->
      <g transform="translate(839.957031 573.1425)scale(0.14 -0.14)">
       <use xlink:href="#TimesNewRomanPSMT-70"/>
       <use x="55.615234" xlink:href="#TimesNewRomanPSMT-105"/>
       <use x="83.398438" xlink:href="#TimesNewRomanPSMT-110"/>
       <use x="133.398438" xlink:href="#TimesNewRomanPSMT-101"/>
       <use x="177.783203" xlink:href="#TimesNewRomanPSMT-32"/>
       <use x="202.783203" xlink:href="#TimesNewRomanPSMT-119"/>
       <use x="275" xlink:href="#TimesNewRomanPSMT-105"/>
       <use x="302.783203" xlink:href="#TimesNewRomanPSMT-116"/>
       <use x="330.566406" xlink:href="#TimesNewRomanPSMT-104"/>
       <use x="380.566406" xlink:href="#TimesNewRomanPSMT-32"/>
       <use x="405.566406" xlink:href="#TimesNewRomanPSMT-104"/>
       <use x="455.566406" xlink:href="#TimesNewRomanPSMT-105"/>
       <use x="483.349609" xlink:href="#TimesNewRomanPSMT-103"/>
       <use x="533.349609" xlink:href="#TimesNewRomanPSMT-104"/>
       <use x="583.349609" xlink:href="#TimesNewRomanPSMT-32"/>
       <use x="608.349609" xlink:href="#TimesNewRomanPSMT-119"/>
       <use x="680.566406" xlink:href="#TimesNewRomanPSMT-105"/>
       <use x="708.349609" xlink:href="#TimesNewRomanPSMT-110"/>
       <use x="758.349609" xlink:href="#TimesNewRomanPSMT-100"/>
       <use x="808.349609" xlink:href="#TimesNewRomanPSMT-115"/>
      </g>
     </g>
    </g>
    <g id="xtick_7">
     <g id="line2d_13">
      <g>
       <use style="stroke:#000000;stroke-width:0.5;" x="1054.265625" xlink:href="#m628eb9a730" y="559.92125"/>
      </g>
     </g>
     <g id="line2d_14">
      <g>
       <use style="stroke:#000000;stroke-width:0.5;" x="1054.265625" xlink:href="#ma19d101c48" y="16.32125"/>
      </g>
     </g>
     <g id="text_7">
      <!-- Raining with high winds -->
      <g transform="translate(985.235781 573.1425)scale(0.14 -0.14)">
       <use xlink:href="#TimesNewRomanPSMT-82"/>
       <use x="66.699219" xlink:href="#TimesNewRomanPSMT-97"/>
       <use x="111.083984" xlink:href="#TimesNewRomanPSMT-105"/>
       <use x="138.867188" xlink:href="#TimesNewRomanPSMT-110"/>
       <use x="188.867188" xlink:href="#TimesNewRomanPSMT-105"/>
       <use x="216.650391" xlink:href="#TimesNewRomanPSMT-110"/>
       <use x="266.650391" xlink:href="#TimesNewRomanPSMT-103"/>
       <use x="316.650391" xlink:href="#TimesNewRomanPSMT-32"/>
       <use x="341.650391" xlink:href="#TimesNewRomanPSMT-119"/>
       <use x="413.867188" xlink:href="#TimesNewRomanPSMT-105"/>
       <use x="441.650391" xlink:href="#TimesNewRomanPSMT-116"/>
       <use x="469.433594" xlink:href="#TimesNewRomanPSMT-104"/>
       <use x="519.433594" xlink:href="#TimesNewRomanPSMT-32"/>
       <use x="544.433594" xlink:href="#TimesNewRomanPSMT-104"/>
       <use x="594.433594" xlink:href="#TimesNewRomanPSMT-105"/>
       <use x="622.216797" xlink:href="#TimesNewRomanPSMT-103"/>
       <use x="672.216797" xlink:href="#TimesNewRomanPSMT-104"/>
       <use x="722.216797" xlink:href="#TimesNewRomanPSMT-32"/>
       <use x="747.216797" xlink:href="#TimesNewRomanPSMT-119"/>
       <use x="819.433594" xlink:href="#TimesNewRomanPSMT-105"/>
       <use x="847.216797" xlink:href="#TimesNewRomanPSMT-110"/>
       <use x="897.216797" xlink:href="#TimesNewRomanPSMT-100"/>
       <use x="947.216797" xlink:href="#TimesNewRomanPSMT-115"/>
      </g>
     </g>
    </g>
    <g id="xtick_8">
     <g id="line2d_15">
      <g>
       <use style="stroke:#000000;stroke-width:0.5;" x="1209.265625" xlink:href="#m628eb9a730" y="559.92125"/>
      </g>
     </g>
     <g id="line2d_16">
      <g>
       <use style="stroke:#000000;stroke-width:0.5;" x="1209.265625" xlink:href="#ma19d101c48" y="16.32125"/>
      </g>
     </g>
     <g id="text_8">
      <!-- Fog or mist -->
      <g transform="translate(1176.983594 573.1425)scale(0.14 -0.14)">
       <defs>
        <path d="M 16.40625 36.53125 
Q 21.296875 41.40625 22.171875 42.140625 
Q 24.359375 44 26.890625 45.015625 
Q 29.4375 46.046875 31.9375 46.046875 
Q 36.140625 46.046875 39.15625 43.59375 
Q 42.1875 41.15625 43.21875 36.53125 
Q 48.25 42.390625 51.703125 44.21875 
Q 55.171875 46.046875 58.84375 46.046875 
Q 62.40625 46.046875 65.15625 44.21875 
Q 67.921875 42.390625 69.53125 38.234375 
Q 70.609375 35.40625 70.609375 29.34375 
L 70.609375 10.109375 
Q 70.609375 5.90625 71.234375 4.34375 
Q 71.734375 3.265625 73.046875 2.515625 
Q 74.359375 1.765625 77.34375 1.765625 
L 77.34375 0 
L 55.28125 0 
L 55.28125 1.765625 
L 56.203125 1.765625 
Q 59.078125 1.765625 60.6875 2.875 
Q 61.8125 3.65625 62.3125 5.375 
Q 62.5 6.203125 62.5 10.109375 
L 62.5 29.34375 
Q 62.5 34.8125 61.1875 37.0625 
Q 59.28125 40.1875 55.078125 40.1875 
Q 52.484375 40.1875 49.875 38.890625 
Q 47.265625 37.59375 43.5625 34.078125 
L 43.453125 33.546875 
L 43.5625 31.453125 
L 43.5625 10.109375 
Q 43.5625 5.515625 44.0625 4.390625 
Q 44.578125 3.265625 45.984375 2.515625 
Q 47.40625 1.765625 50.828125 1.765625 
L 50.828125 0 
L 28.21875 0 
L 28.21875 1.765625 
Q 31.9375 1.765625 33.328125 2.640625 
Q 34.71875 3.515625 35.25 5.28125 
Q 35.5 6.109375 35.5 10.109375 
L 35.5 29.34375 
Q 35.5 34.8125 33.890625 37.203125 
Q 31.734375 40.328125 27.875 40.328125 
Q 25.25 40.328125 22.65625 38.921875 
Q 18.609375 36.765625 16.40625 34.078125 
L 16.40625 10.109375 
Q 16.40625 5.71875 17.015625 4.390625 
Q 17.625 3.078125 18.8125 2.421875 
Q 20.015625 1.765625 23.6875 1.765625 
L 23.6875 0 
L 1.5625 0 
L 1.5625 1.765625 
Q 4.640625 1.765625 5.859375 2.421875 
Q 7.078125 3.078125 7.703125 4.515625 
Q 8.34375 5.953125 8.34375 10.109375 
L 8.34375 27.203125 
Q 8.34375 34.578125 7.90625 36.71875 
Q 7.5625 38.328125 6.828125 38.9375 
Q 6.109375 39.546875 4.828125 39.546875 
Q 3.46875 39.546875 1.5625 38.8125 
L 0.828125 40.578125 
L 14.3125 46.046875 
L 16.40625 46.046875 
z
" id="TimesNewRomanPSMT-109"/>
       </defs>
       <use xlink:href="#TimesNewRomanPSMT-70"/>
       <use x="55.615234" xlink:href="#TimesNewRomanPSMT-111"/>
       <use x="105.615234" xlink:href="#TimesNewRomanPSMT-103"/>
       <use x="155.615234" xlink:href="#TimesNewRomanPSMT-32"/>
       <use x="180.615234" xlink:href="#TimesNewRomanPSMT-111"/>
       <use x="230.615234" xlink:href="#TimesNewRomanPSMT-114"/>
       <use x="263.916016" xlink:href="#TimesNewRomanPSMT-32"/>
       <use x="288.916016" xlink:href="#TimesNewRomanPSMT-109"/>
       <use x="366.699219" xlink:href="#TimesNewRomanPSMT-105"/>
       <use x="394.482422" xlink:href="#TimesNewRomanPSMT-115"/>
       <use x="433.398438" xlink:href="#TimesNewRomanPSMT-116"/>
      </g>
     </g>
    </g>
    <g id="xtick_9">
     <g id="line2d_17">
      <g>
       <use style="stroke:#000000;stroke-width:0.5;" x="1364.265625" xlink:href="#m628eb9a730" y="559.92125"/>
      </g>
     </g>
     <g id="line2d_18">
      <g>
       <use style="stroke:#000000;stroke-width:0.5;" x="1364.265625" xlink:href="#ma19d101c48" y="16.32125"/>
      </g>
     </g>
     <g id="text_9">
      <!-- Snowing with high winds -->
      <g transform="translate(1292.509063 573.1425)scale(0.14 -0.14)">
       <use xlink:href="#TimesNewRomanPSMT-83"/>
       <use x="55.615234" xlink:href="#TimesNewRomanPSMT-110"/>
       <use x="105.615234" xlink:href="#TimesNewRomanPSMT-111"/>
       <use x="155.615234" xlink:href="#TimesNewRomanPSMT-119"/>
       <use x="227.832031" xlink:href="#TimesNewRomanPSMT-105"/>
       <use x="255.615234" xlink:href="#TimesNewRomanPSMT-110"/>
       <use x="305.615234" xlink:href="#TimesNewRomanPSMT-103"/>
       <use x="355.615234" xlink:href="#TimesNewRomanPSMT-32"/>
       <use x="380.615234" xlink:href="#TimesNewRomanPSMT-119"/>
       <use x="452.832031" xlink:href="#TimesNewRomanPSMT-105"/>
       <use x="480.615234" xlink:href="#TimesNewRomanPSMT-116"/>
       <use x="508.398438" xlink:href="#TimesNewRomanPSMT-104"/>
       <use x="558.398438" xlink:href="#TimesNewRomanPSMT-32"/>
       <use x="583.398438" xlink:href="#TimesNewRomanPSMT-104"/>
       <use x="633.398438" xlink:href="#TimesNewRomanPSMT-105"/>
       <use x="661.181641" xlink:href="#TimesNewRomanPSMT-103"/>
       <use x="711.181641" xlink:href="#TimesNewRomanPSMT-104"/>
       <use x="761.181641" xlink:href="#TimesNewRomanPSMT-32"/>
       <use x="786.181641" xlink:href="#TimesNewRomanPSMT-119"/>
       <use x="858.398438" xlink:href="#TimesNewRomanPSMT-105"/>
       <use x="886.181641" xlink:href="#TimesNewRomanPSMT-110"/>
       <use x="936.181641" xlink:href="#TimesNewRomanPSMT-100"/>
       <use x="986.181641" xlink:href="#TimesNewRomanPSMT-115"/>
      </g>
     </g>
    </g>
    <g id="xtick_10">
     <g id="line2d_19">
      <defs>
       <path d="M 0 0 
L 0 -1.5 
" id="m7215697bed" style="stroke:#000000;stroke-width:0.5;"/>
      </defs>
      <g>
       <use style="stroke:#000000;stroke-width:0.5;" x="62.265625" xlink:href="#m7215697bed" y="559.92125"/>
      </g>
     </g>
     <g id="line2d_20">
      <defs>
       <path d="M 0 0 
L 0 1.5 
" id="m669de428ab" style="stroke:#000000;stroke-width:0.5;"/>
      </defs>
      <g>
       <use style="stroke:#000000;stroke-width:0.5;" x="62.265625" xlink:href="#m669de428ab" y="16.32125"/>
      </g>
     </g>
    </g>
    <g id="xtick_11">
     <g id="line2d_21">
      <g>
       <use style="stroke:#000000;stroke-width:0.5;" x="93.265625" xlink:href="#m7215697bed" y="559.92125"/>
      </g>
     </g>
     <g id="line2d_22">
      <g>
       <use style="stroke:#000000;stroke-width:0.5;" x="93.265625" xlink:href="#m669de428ab" y="16.32125"/>
      </g>
     </g>
    </g>
    <g id="xtick_12">
     <g id="line2d_23">
      <g>
       <use style="stroke:#000000;stroke-width:0.5;" x="155.265625" xlink:href="#m7215697bed" y="559.92125"/>
      </g>
     </g>
     <g id="line2d_24">
      <g>
       <use style="stroke:#000000;stroke-width:0.5;" x="155.265625" xlink:href="#m669de428ab" y="16.32125"/>
      </g>
     </g>
    </g>
    <g id="xtick_13">
     <g id="line2d_25">
      <g>
       <use style="stroke:#000000;stroke-width:0.5;" x="186.265625" xlink:href="#m7215697bed" y="559.92125"/>
      </g>
     </g>
     <g id="line2d_26">
      <g>
       <use style="stroke:#000000;stroke-width:0.5;" x="186.265625" xlink:href="#m669de428ab" y="16.32125"/>
      </g>
     </g>
    </g>
    <g id="xtick_14">
     <g id="line2d_27">
      <g>
       <use style="stroke:#000000;stroke-width:0.5;" x="217.265625" xlink:href="#m7215697bed" y="559.92125"/>
      </g>
     </g>
     <g id="line2d_28">
      <g>
       <use style="stroke:#000000;stroke-width:0.5;" x="217.265625" xlink:href="#m669de428ab" y="16.32125"/>
      </g>
     </g>
    </g>
    <g id="xtick_15">
     <g id="line2d_29">
      <g>
       <use style="stroke:#000000;stroke-width:0.5;" x="248.265625" xlink:href="#m7215697bed" y="559.92125"/>
      </g>
     </g>
     <g id="line2d_30">
      <g>
       <use style="stroke:#000000;stroke-width:0.5;" x="248.265625" xlink:href="#m669de428ab" y="16.32125"/>
      </g>
     </g>
    </g>
    <g id="xtick_16">
     <g id="line2d_31">
      <g>
       <use style="stroke:#000000;stroke-width:0.5;" x="310.265625" xlink:href="#m7215697bed" y="559.92125"/>
      </g>
     </g>
     <g id="line2d_32">
      <g>
       <use style="stroke:#000000;stroke-width:0.5;" x="310.265625" xlink:href="#m669de428ab" y="16.32125"/>
      </g>
     </g>
    </g>
    <g id="xtick_17">
     <g id="line2d_33">
      <g>
       <use style="stroke:#000000;stroke-width:0.5;" x="341.265625" xlink:href="#m7215697bed" y="559.92125"/>
      </g>
     </g>
     <g id="line2d_34">
      <g>
       <use style="stroke:#000000;stroke-width:0.5;" x="341.265625" xlink:href="#m669de428ab" y="16.32125"/>
      </g>
     </g>
    </g>
    <g id="xtick_18">
     <g id="line2d_35">
      <g>
       <use style="stroke:#000000;stroke-width:0.5;" x="372.265625" xlink:href="#m7215697bed" y="559.92125"/>
      </g>
     </g>
     <g id="line2d_36">
      <g>
       <use style="stroke:#000000;stroke-width:0.5;" x="372.265625" xlink:href="#m669de428ab" y="16.32125"/>
      </g>
     </g>
    </g>
    <g id="xtick_19">
     <g id="line2d_37">
      <g>
       <use style="stroke:#000000;stroke-width:0.5;" x="403.265625" xlink:href="#m7215697bed" y="559.92125"/>
      </g>
     </g>
     <g id="line2d_38">
      <g>
       <use style="stroke:#000000;stroke-width:0.5;" x="403.265625" xlink:href="#m669de428ab" y="16.32125"/>
      </g>
     </g>
    </g>
    <g id="xtick_20">
     <g id="line2d_39">
      <g>
       <use style="stroke:#000000;stroke-width:0.5;" x="465.265625" xlink:href="#m7215697bed" y="559.92125"/>
      </g>
     </g>
     <g id="line2d_40">
      <g>
       <use style="stroke:#000000;stroke-width:0.5;" x="465.265625" xlink:href="#m669de428ab" y="16.32125"/>
      </g>
     </g>
    </g>
    <g id="xtick_21">
     <g id="line2d_41">
      <g>
       <use style="stroke:#000000;stroke-width:0.5;" x="496.265625" xlink:href="#m7215697bed" y="559.92125"/>
      </g>
     </g>
     <g id="line2d_42">
      <g>
       <use style="stroke:#000000;stroke-width:0.5;" x="496.265625" xlink:href="#m669de428ab" y="16.32125"/>
      </g>
     </g>
    </g>
    <g id="xtick_22">
     <g id="line2d_43">
      <g>
       <use style="stroke:#000000;stroke-width:0.5;" x="527.265625" xlink:href="#m7215697bed" y="559.92125"/>
      </g>
     </g>
     <g id="line2d_44">
      <g>
       <use style="stroke:#000000;stroke-width:0.5;" x="527.265625" xlink:href="#m669de428ab" y="16.32125"/>
      </g>
     </g>
    </g>
    <g id="xtick_23">
     <g id="line2d_45">
      <g>
       <use style="stroke:#000000;stroke-width:0.5;" x="558.265625" xlink:href="#m7215697bed" y="559.92125"/>
      </g>
     </g>
     <g id="line2d_46">
      <g>
       <use style="stroke:#000000;stroke-width:0.5;" x="558.265625" xlink:href="#m669de428ab" y="16.32125"/>
      </g>
     </g>
    </g>
    <g id="xtick_24">
     <g id="line2d_47">
      <g>
       <use style="stroke:#000000;stroke-width:0.5;" x="620.265625" xlink:href="#m7215697bed" y="559.92125"/>
      </g>
     </g>
     <g id="line2d_48">
      <g>
       <use style="stroke:#000000;stroke-width:0.5;" x="620.265625" xlink:href="#m669de428ab" y="16.32125"/>
      </g>
     </g>
    </g>
    <g id="xtick_25">
     <g id="line2d_49">
      <g>
       <use style="stroke:#000000;stroke-width:0.5;" x="651.265625" xlink:href="#m7215697bed" y="559.92125"/>
      </g>
     </g>
     <g id="line2d_50">
      <g>
       <use style="stroke:#000000;stroke-width:0.5;" x="651.265625" xlink:href="#m669de428ab" y="16.32125"/>
      </g>
     </g>
    </g>
    <g id="xtick_26">
     <g id="line2d_51">
      <g>
       <use style="stroke:#000000;stroke-width:0.5;" x="682.265625" xlink:href="#m7215697bed" y="559.92125"/>
      </g>
     </g>
     <g id="line2d_52">
      <g>
       <use style="stroke:#000000;stroke-width:0.5;" x="682.265625" xlink:href="#m669de428ab" y="16.32125"/>
      </g>
     </g>
    </g>
    <g id="xtick_27">
     <g id="line2d_53">
      <g>
       <use style="stroke:#000000;stroke-width:0.5;" x="713.265625" xlink:href="#m7215697bed" y="559.92125"/>
      </g>
     </g>
     <g id="line2d_54">
      <g>
       <use style="stroke:#000000;stroke-width:0.5;" x="713.265625" xlink:href="#m669de428ab" y="16.32125"/>
      </g>
     </g>
    </g>
    <g id="xtick_28">
     <g id="line2d_55">
      <g>
       <use style="stroke:#000000;stroke-width:0.5;" x="775.265625" xlink:href="#m7215697bed" y="559.92125"/>
      </g>
     </g>
     <g id="line2d_56">
      <g>
       <use style="stroke:#000000;stroke-width:0.5;" x="775.265625" xlink:href="#m669de428ab" y="16.32125"/>
      </g>
     </g>
    </g>
    <g id="xtick_29">
     <g id="line2d_57">
      <g>
       <use style="stroke:#000000;stroke-width:0.5;" x="806.265625" xlink:href="#m7215697bed" y="559.92125"/>
      </g>
     </g>
     <g id="line2d_58">
      <g>
       <use style="stroke:#000000;stroke-width:0.5;" x="806.265625" xlink:href="#m669de428ab" y="16.32125"/>
      </g>
     </g>
    </g>
    <g id="xtick_30">
     <g id="line2d_59">
      <g>
       <use style="stroke:#000000;stroke-width:0.5;" x="837.265625" xlink:href="#m7215697bed" y="559.92125"/>
      </g>
     </g>
     <g id="line2d_60">
      <g>
       <use style="stroke:#000000;stroke-width:0.5;" x="837.265625" xlink:href="#m669de428ab" y="16.32125"/>
      </g>
     </g>
    </g>
    <g id="xtick_31">
     <g id="line2d_61">
      <g>
       <use style="stroke:#000000;stroke-width:0.5;" x="868.265625" xlink:href="#m7215697bed" y="559.92125"/>
      </g>
     </g>
     <g id="line2d_62">
      <g>
       <use style="stroke:#000000;stroke-width:0.5;" x="868.265625" xlink:href="#m669de428ab" y="16.32125"/>
      </g>
     </g>
    </g>
    <g id="xtick_32">
     <g id="line2d_63">
      <g>
       <use style="stroke:#000000;stroke-width:0.5;" x="930.265625" xlink:href="#m7215697bed" y="559.92125"/>
      </g>
     </g>
     <g id="line2d_64">
      <g>
       <use style="stroke:#000000;stroke-width:0.5;" x="930.265625" xlink:href="#m669de428ab" y="16.32125"/>
      </g>
     </g>
    </g>
    <g id="xtick_33">
     <g id="line2d_65">
      <g>
       <use style="stroke:#000000;stroke-width:0.5;" x="961.265625" xlink:href="#m7215697bed" y="559.92125"/>
      </g>
     </g>
     <g id="line2d_66">
      <g>
       <use style="stroke:#000000;stroke-width:0.5;" x="961.265625" xlink:href="#m669de428ab" y="16.32125"/>
      </g>
     </g>
    </g>
    <g id="xtick_34">
     <g id="line2d_67">
      <g>
       <use style="stroke:#000000;stroke-width:0.5;" x="992.265625" xlink:href="#m7215697bed" y="559.92125"/>
      </g>
     </g>
     <g id="line2d_68">
      <g>
       <use style="stroke:#000000;stroke-width:0.5;" x="992.265625" xlink:href="#m669de428ab" y="16.32125"/>
      </g>
     </g>
    </g>
    <g id="xtick_35">
     <g id="line2d_69">
      <g>
       <use style="stroke:#000000;stroke-width:0.5;" x="1023.265625" xlink:href="#m7215697bed" y="559.92125"/>
      </g>
     </g>
     <g id="line2d_70">
      <g>
       <use style="stroke:#000000;stroke-width:0.5;" x="1023.265625" xlink:href="#m669de428ab" y="16.32125"/>
      </g>
     </g>
    </g>
    <g id="xtick_36">
     <g id="line2d_71">
      <g>
       <use style="stroke:#000000;stroke-width:0.5;" x="1085.265625" xlink:href="#m7215697bed" y="559.92125"/>
      </g>
     </g>
     <g id="line2d_72">
      <g>
       <use style="stroke:#000000;stroke-width:0.5;" x="1085.265625" xlink:href="#m669de428ab" y="16.32125"/>
      </g>
     </g>
    </g>
    <g id="xtick_37">
     <g id="line2d_73">
      <g>
       <use style="stroke:#000000;stroke-width:0.5;" x="1116.265625" xlink:href="#m7215697bed" y="559.92125"/>
      </g>
     </g>
     <g id="line2d_74">
      <g>
       <use style="stroke:#000000;stroke-width:0.5;" x="1116.265625" xlink:href="#m669de428ab" y="16.32125"/>
      </g>
     </g>
    </g>
    <g id="xtick_38">
     <g id="line2d_75">
      <g>
       <use style="stroke:#000000;stroke-width:0.5;" x="1147.265625" xlink:href="#m7215697bed" y="559.92125"/>
      </g>
     </g>
     <g id="line2d_76">
      <g>
       <use style="stroke:#000000;stroke-width:0.5;" x="1147.265625" xlink:href="#m669de428ab" y="16.32125"/>
      </g>
     </g>
    </g>
    <g id="xtick_39">
     <g id="line2d_77">
      <g>
       <use style="stroke:#000000;stroke-width:0.5;" x="1178.265625" xlink:href="#m7215697bed" y="559.92125"/>
      </g>
     </g>
     <g id="line2d_78">
      <g>
       <use style="stroke:#000000;stroke-width:0.5;" x="1178.265625" xlink:href="#m669de428ab" y="16.32125"/>
      </g>
     </g>
    </g>
    <g id="xtick_40">
     <g id="line2d_79">
      <g>
       <use style="stroke:#000000;stroke-width:0.5;" x="1240.265625" xlink:href="#m7215697bed" y="559.92125"/>
      </g>
     </g>
     <g id="line2d_80">
      <g>
       <use style="stroke:#000000;stroke-width:0.5;" x="1240.265625" xlink:href="#m669de428ab" y="16.32125"/>
      </g>
     </g>
    </g>
    <g id="xtick_41">
     <g id="line2d_81">
      <g>
       <use style="stroke:#000000;stroke-width:0.5;" x="1271.265625" xlink:href="#m7215697bed" y="559.92125"/>
      </g>
     </g>
     <g id="line2d_82">
      <g>
       <use style="stroke:#000000;stroke-width:0.5;" x="1271.265625" xlink:href="#m669de428ab" y="16.32125"/>
      </g>
     </g>
    </g>
    <g id="xtick_42">
     <g id="line2d_83">
      <g>
       <use style="stroke:#000000;stroke-width:0.5;" x="1302.265625" xlink:href="#m7215697bed" y="559.92125"/>
      </g>
     </g>
     <g id="line2d_84">
      <g>
       <use style="stroke:#000000;stroke-width:0.5;" x="1302.265625" xlink:href="#m669de428ab" y="16.32125"/>
      </g>
     </g>
    </g>
    <g id="xtick_43">
     <g id="line2d_85">
      <g>
       <use style="stroke:#000000;stroke-width:0.5;" x="1333.265625" xlink:href="#m7215697bed" y="559.92125"/>
      </g>
     </g>
     <g id="line2d_86">
      <g>
       <use style="stroke:#000000;stroke-width:0.5;" x="1333.265625" xlink:href="#m669de428ab" y="16.32125"/>
      </g>
     </g>
    </g>
    <g id="xtick_44">
     <g id="line2d_87">
      <g>
       <use style="stroke:#000000;stroke-width:0.5;" x="1395.265625" xlink:href="#m7215697bed" y="559.92125"/>
      </g>
     </g>
     <g id="line2d_88">
      <g>
       <use style="stroke:#000000;stroke-width:0.5;" x="1395.265625" xlink:href="#m669de428ab" y="16.32125"/>
      </g>
     </g>
    </g>
    <g id="xtick_45">
     <g id="line2d_89">
      <g>
       <use style="stroke:#000000;stroke-width:0.5;" x="1426.265625" xlink:href="#m7215697bed" y="559.92125"/>
      </g>
     </g>
     <g id="line2d_90">
      <g>
       <use style="stroke:#000000;stroke-width:0.5;" x="1426.265625" xlink:href="#m669de428ab" y="16.32125"/>
      </g>
     </g>
    </g>
    <g id="text_10">
     <!-- Weather Conditions -->
     <g transform="translate(664.804688 594.050938)scale(0.2 -0.2)">
      <defs>
       <path d="M 93.609375 66.21875 
L 93.609375 64.40625 
Q 91.015625 64.40625 89.40625 63.46875 
Q 87.796875 62.546875 86.328125 60.015625 
Q 85.359375 58.296875 83.25 51.859375 
L 64.796875 -1.515625 
L 62.84375 -1.515625 
L 47.75 40.828125 
L 32.765625 -1.515625 
L 31 -1.515625 
L 11.328125 53.46875 
Q 9.125 59.625 8.546875 60.75 
Q 7.5625 62.59375 5.875 63.5 
Q 4.203125 64.40625 1.3125 64.40625 
L 1.3125 66.21875 
L 25.828125 66.21875 
L 25.828125 64.40625 
L 24.65625 64.40625 
Q 22.078125 64.40625 20.703125 63.234375 
Q 19.34375 62.0625 19.34375 60.40625 
Q 19.34375 58.6875 21.484375 52.546875 
L 34.515625 15.375 
L 45.515625 46.96875 
L 43.5625 52.546875 
L 42 56.984375 
Q 40.96875 59.421875 39.703125 61.28125 
Q 39.0625 62.203125 38.140625 62.84375 
Q 36.921875 63.71875 35.6875 64.109375 
Q 34.765625 64.40625 32.765625 64.40625 
L 32.765625 66.21875 
L 58.546875 66.21875 
L 58.546875 64.40625 
L 56.78125 64.40625 
Q 54.046875 64.40625 52.78125 63.234375 
Q 51.515625 62.0625 51.515625 60.0625 
Q 51.515625 57.5625 53.71875 51.375 
L 66.40625 15.375 
L 79 51.859375 
Q 81.15625 57.90625 81.15625 60.25 
Q 81.15625 61.375 80.4375 62.34375 
Q 79.734375 63.328125 78.65625 63.71875 
Q 76.8125 64.40625 73.828125 64.40625 
L 73.828125 66.21875 
z
" id="TimesNewRomanPSMT-87"/>
       <path d="M 60.203125 67.71875 
L 61.71875 45.21875 
L 60.203125 45.21875 
Q 57.171875 55.328125 51.5625 59.765625 
Q 45.953125 64.203125 38.09375 64.203125 
Q 31.5 64.203125 26.171875 60.859375 
Q 20.84375 57.515625 17.796875 50.1875 
Q 14.75 42.875 14.75 31.984375 
Q 14.75 23 17.625 16.40625 
Q 20.515625 9.8125 26.296875 6.296875 
Q 32.078125 2.78125 39.5 2.78125 
Q 45.953125 2.78125 50.875 5.53125 
Q 55.8125 8.296875 61.71875 16.5 
L 63.234375 15.53125 
Q 58.25 6.6875 51.609375 2.578125 
Q 44.96875 -1.515625 35.84375 -1.515625 
Q 19.390625 -1.515625 10.359375 10.6875 
Q 3.609375 19.78125 3.609375 32.078125 
Q 3.609375 42 8.046875 50.296875 
Q 12.5 58.59375 20.28125 63.15625 
Q 28.078125 67.71875 37.3125 67.71875 
Q 44.484375 67.71875 51.46875 64.203125 
Q 53.515625 63.140625 54.390625 63.140625 
Q 55.71875 63.140625 56.6875 64.0625 
Q 57.953125 65.375 58.5 67.71875 
z
" id="TimesNewRomanPSMT-67"/>
      </defs>
      <use xlink:href="#TimesNewRomanPSMT-87"/>
      <use x="86.384766" xlink:href="#TimesNewRomanPSMT-101"/>
      <use x="130.769531" xlink:href="#TimesNewRomanPSMT-97"/>
      <use x="175.154297" xlink:href="#TimesNewRomanPSMT-116"/>
      <use x="202.9375" xlink:href="#TimesNewRomanPSMT-104"/>
      <use x="252.9375" xlink:href="#TimesNewRomanPSMT-101"/>
      <use x="297.322266" xlink:href="#TimesNewRomanPSMT-114"/>
      <use x="330.623047" xlink:href="#TimesNewRomanPSMT-32"/>
      <use x="355.623047" xlink:href="#TimesNewRomanPSMT-67"/>
      <use x="422.322266" xlink:href="#TimesNewRomanPSMT-111"/>
      <use x="472.322266" xlink:href="#TimesNewRomanPSMT-110"/>
      <use x="522.322266" xlink:href="#TimesNewRomanPSMT-100"/>
      <use x="572.322266" xlink:href="#TimesNewRomanPSMT-105"/>
      <use x="600.105469" xlink:href="#TimesNewRomanPSMT-116"/>
      <use x="627.888672" xlink:href="#TimesNewRomanPSMT-105"/>
      <use x="655.671875" xlink:href="#TimesNewRomanPSMT-111"/>
      <use x="705.671875" xlink:href="#TimesNewRomanPSMT-110"/>
      <use x="755.671875" xlink:href="#TimesNewRomanPSMT-115"/>
     </g>
    </g>
   </g>
   <g id="matplotlib.axis_2">
    <g id="ytick_1">
     <g id="line2d_91">
      <path clip-path="url(#p22f3634c1b)" d="M 46.765625 559.92125 
L 1441.765625 559.92125 
" style="fill:none;stroke:#000000;stroke-dasharray:1.85,0.8;stroke-dashoffset:0;stroke-opacity:0.5;stroke-width:0.5;"/>
     </g>
     <g id="line2d_92">
      <defs>
       <path d="M 0 0 
L 3 0 
" id="m68fdfb141e" style="stroke:#000000;stroke-width:0.5;"/>
      </defs>
      <g>
       <use style="stroke:#000000;stroke-width:0.5;" x="46.765625" xlink:href="#m68fdfb141e" y="559.92125"/>
      </g>
     </g>
     <g id="line2d_93">
      <defs>
       <path d="M 0 0 
L -3 0 
" id="ma21b4d00dd" style="stroke:#000000;stroke-width:0.5;"/>
      </defs>
      <g>
       <use style="stroke:#000000;stroke-width:0.5;" x="1441.765625" xlink:href="#ma21b4d00dd" y="559.92125"/>
      </g>
     </g>
     <g id="text_11">
      <!-- 0.0 -->
      <g transform="translate(25.765625 564.781875)scale(0.14 -0.14)">
       <defs>
        <path d="M 3.609375 32.71875 
Q 3.609375 44.046875 7.03125 52.21875 
Q 10.453125 60.40625 16.109375 64.40625 
Q 20.515625 67.578125 25.203125 67.578125 
Q 32.8125 67.578125 38.875 59.8125 
Q 46.4375 50.203125 46.4375 33.734375 
Q 46.4375 22.21875 43.109375 14.15625 
Q 39.796875 6.109375 34.640625 2.46875 
Q 29.5 -1.171875 24.703125 -1.171875 
Q 15.234375 -1.171875 8.9375 10.015625 
Q 3.609375 19.4375 3.609375 32.71875 
z
M 13.1875 31.5 
Q 13.1875 17.828125 16.546875 9.1875 
Q 19.34375 1.90625 24.859375 1.90625 
Q 27.484375 1.90625 30.3125 4.265625 
Q 33.15625 6.640625 34.625 12.203125 
Q 36.859375 20.609375 36.859375 35.890625 
Q 36.859375 47.21875 34.515625 54.78125 
Q 32.765625 60.40625 29.984375 62.75 
Q 27.984375 64.359375 25.140625 64.359375 
Q 21.828125 64.359375 19.234375 61.375 
Q 15.71875 57.328125 14.453125 48.625 
Q 13.1875 39.9375 13.1875 31.5 
z
" id="TimesNewRomanPSMT-48"/>
        <path d="M 12.5 9.46875 
Q 14.796875 9.46875 16.359375 7.875 
Q 17.921875 6.296875 17.921875 4.046875 
Q 17.921875 1.8125 16.328125 0.21875 
Q 14.75 -1.375 12.5 -1.375 
Q 10.25 -1.375 8.65625 0.21875 
Q 7.078125 1.8125 7.078125 4.046875 
Q 7.078125 6.34375 8.65625 7.90625 
Q 10.25 9.46875 12.5 9.46875 
z
" id="TimesNewRomanPSMT-46"/>
       </defs>
       <use xlink:href="#TimesNewRomanPSMT-48"/>
       <use x="50" xlink:href="#TimesNewRomanPSMT-46"/>
       <use x="75" xlink:href="#TimesNewRomanPSMT-48"/>
      </g>
     </g>
    </g>
    <g id="ytick_2">
     <g id="line2d_94">
      <path clip-path="url(#p22f3634c1b)" d="M 46.765625 458.31092 
L 1441.765625 458.31092 
" style="fill:none;stroke:#000000;stroke-dasharray:1.85,0.8;stroke-dashoffset:0;stroke-opacity:0.5;stroke-width:0.5;"/>
     </g>
     <g id="line2d_95">
      <g>
       <use style="stroke:#000000;stroke-width:0.5;" x="46.765625" xlink:href="#m68fdfb141e" y="458.31092"/>
      </g>
     </g>
     <g id="line2d_96">
      <g>
       <use style="stroke:#000000;stroke-width:0.5;" x="1441.765625" xlink:href="#ma21b4d00dd" y="458.31092"/>
      </g>
     </g>
     <g id="text_12">
      <!-- 0.2 -->
      <g transform="translate(25.765625 463.171545)scale(0.14 -0.14)">
       <defs>
        <path d="M 45.84375 12.75 
L 41.21875 0 
L 2.15625 0 
L 2.15625 1.8125 
Q 19.390625 17.53125 26.421875 27.484375 
Q 33.453125 37.453125 33.453125 45.703125 
Q 33.453125 52 29.59375 56.046875 
Q 25.734375 60.109375 20.359375 60.109375 
Q 15.484375 60.109375 11.59375 57.25 
Q 7.71875 54.390625 5.859375 48.875 
L 4.046875 48.875 
Q 5.28125 57.90625 10.328125 62.734375 
Q 15.375 67.578125 22.953125 67.578125 
Q 31 67.578125 36.390625 62.40625 
Q 41.796875 57.234375 41.796875 50.203125 
Q 41.796875 45.171875 39.453125 40.140625 
Q 35.84375 32.234375 27.734375 23.390625 
Q 15.578125 10.109375 12.546875 7.375 
L 29.828125 7.375 
Q 35.109375 7.375 37.234375 7.765625 
Q 39.359375 8.15625 41.0625 9.34375 
Q 42.78125 10.546875 44.046875 12.75 
z
" id="TimesNewRomanPSMT-50"/>
       </defs>
       <use xlink:href="#TimesNewRomanPSMT-48"/>
       <use x="50" xlink:href="#TimesNewRomanPSMT-46"/>
       <use x="75" xlink:href="#TimesNewRomanPSMT-50"/>
      </g>
     </g>
    </g>
    <g id="ytick_3">
     <g id="line2d_97">
      <path clip-path="url(#p22f3634c1b)" d="M 46.765625 356.700589 
L 1441.765625 356.700589 
" style="fill:none;stroke:#000000;stroke-dasharray:1.85,0.8;stroke-dashoffset:0;stroke-opacity:0.5;stroke-width:0.5;"/>
     </g>
     <g id="line2d_98">
      <g>
       <use style="stroke:#000000;stroke-width:0.5;" x="46.765625" xlink:href="#m68fdfb141e" y="356.700589"/>
      </g>
     </g>
     <g id="line2d_99">
      <g>
       <use style="stroke:#000000;stroke-width:0.5;" x="1441.765625" xlink:href="#ma21b4d00dd" y="356.700589"/>
      </g>
     </g>
     <g id="text_13">
      <!-- 0.4 -->
      <g transform="translate(25.765625 361.561214)scale(0.14 -0.14)">
       <defs>
        <path d="M 46.53125 24.421875 
L 46.53125 17.484375 
L 37.640625 17.484375 
L 37.640625 0 
L 29.59375 0 
L 29.59375 17.484375 
L 1.5625 17.484375 
L 1.5625 23.734375 
L 32.28125 67.578125 
L 37.640625 67.578125 
L 37.640625 24.421875 
z
M 29.59375 24.421875 
L 29.59375 57.28125 
L 6.34375 24.421875 
z
" id="TimesNewRomanPSMT-52"/>
       </defs>
       <use xlink:href="#TimesNewRomanPSMT-48"/>
       <use x="50" xlink:href="#TimesNewRomanPSMT-46"/>
       <use x="75" xlink:href="#TimesNewRomanPSMT-52"/>
      </g>
     </g>
    </g>
    <g id="ytick_4">
     <g id="line2d_100">
      <path clip-path="url(#p22f3634c1b)" d="M 46.765625 255.090259 
L 1441.765625 255.090259 
" style="fill:none;stroke:#000000;stroke-dasharray:1.85,0.8;stroke-dashoffset:0;stroke-opacity:0.5;stroke-width:0.5;"/>
     </g>
     <g id="line2d_101">
      <g>
       <use style="stroke:#000000;stroke-width:0.5;" x="46.765625" xlink:href="#m68fdfb141e" y="255.090259"/>
      </g>
     </g>
     <g id="line2d_102">
      <g>
       <use style="stroke:#000000;stroke-width:0.5;" x="1441.765625" xlink:href="#ma21b4d00dd" y="255.090259"/>
      </g>
     </g>
     <g id="text_14">
      <!-- 0.6 -->
      <g transform="translate(25.765625 259.950884)scale(0.14 -0.14)">
       <defs>
        <path d="M 44.828125 67.578125 
L 44.828125 65.765625 
Q 38.375 65.140625 34.296875 63.203125 
Q 30.21875 61.28125 26.234375 57.328125 
Q 22.265625 53.375 19.65625 48.515625 
Q 17.046875 43.65625 15.28125 36.96875 
Q 22.3125 41.796875 29.390625 41.796875 
Q 36.1875 41.796875 41.15625 36.328125 
Q 46.140625 30.859375 46.140625 22.265625 
Q 46.140625 13.96875 41.109375 7.125 
Q 35.0625 -1.171875 25.09375 -1.171875 
Q 18.3125 -1.171875 13.578125 3.328125 
Q 4.296875 12.0625 4.296875 25.984375 
Q 4.296875 34.859375 7.859375 42.859375 
Q 11.421875 50.875 18.03125 57.078125 
Q 24.65625 63.28125 30.703125 65.421875 
Q 36.765625 67.578125 42 67.578125 
z
M 14.453125 33.40625 
Q 13.578125 26.8125 13.578125 22.75 
Q 13.578125 18.0625 15.3125 12.5625 
Q 17.046875 7.078125 20.453125 3.859375 
Q 22.953125 1.5625 26.515625 1.5625 
Q 30.765625 1.5625 34.109375 5.5625 
Q 37.453125 9.578125 37.453125 17 
Q 37.453125 25.34375 34.125 31.4375 
Q 30.8125 37.546875 24.703125 37.546875 
Q 22.859375 37.546875 20.734375 36.765625 
Q 18.609375 35.984375 14.453125 33.40625 
z
" id="TimesNewRomanPSMT-54"/>
       </defs>
       <use xlink:href="#TimesNewRomanPSMT-48"/>
       <use x="50" xlink:href="#TimesNewRomanPSMT-46"/>
       <use x="75" xlink:href="#TimesNewRomanPSMT-54"/>
      </g>
     </g>
    </g>
    <g id="ytick_5">
     <g id="line2d_103">
      <path clip-path="url(#p22f3634c1b)" d="M 46.765625 153.479929 
L 1441.765625 153.479929 
" style="fill:none;stroke:#000000;stroke-dasharray:1.85,0.8;stroke-dashoffset:0;stroke-opacity:0.5;stroke-width:0.5;"/>
     </g>
     <g id="line2d_104">
      <g>
       <use style="stroke:#000000;stroke-width:0.5;" x="46.765625" xlink:href="#m68fdfb141e" y="153.479929"/>
      </g>
     </g>
     <g id="line2d_105">
      <g>
       <use style="stroke:#000000;stroke-width:0.5;" x="1441.765625" xlink:href="#ma21b4d00dd" y="153.479929"/>
      </g>
     </g>
     <g id="text_15">
      <!-- 0.8 -->
      <g transform="translate(25.765625 158.340554)scale(0.14 -0.14)">
       <defs>
        <path d="M 19.1875 33.34375 
Q 11.328125 39.796875 9.046875 43.703125 
Q 6.78125 47.609375 6.78125 51.8125 
Q 6.78125 58.25 11.765625 62.90625 
Q 16.75 67.578125 25 67.578125 
Q 33.015625 67.578125 37.890625 63.234375 
Q 42.78125 58.890625 42.78125 53.328125 
Q 42.78125 49.609375 40.140625 45.75 
Q 37.5 41.890625 29.15625 36.671875 
Q 37.75 30.03125 40.53125 26.21875 
Q 44.234375 21.234375 44.234375 15.71875 
Q 44.234375 8.734375 38.90625 3.78125 
Q 33.59375 -1.171875 24.953125 -1.171875 
Q 15.53125 -1.171875 10.25 4.734375 
Q 6.0625 9.46875 6.0625 15.09375 
Q 6.0625 19.484375 9.015625 23.796875 
Q 11.96875 28.125 19.1875 33.34375 
z
M 26.859375 38.578125 
Q 32.71875 43.84375 34.28125 46.890625 
Q 35.84375 49.953125 35.84375 53.8125 
Q 35.84375 58.9375 32.953125 61.84375 
Q 30.078125 64.75 25.09375 64.75 
Q 20.125 64.75 17 61.859375 
Q 13.875 58.984375 13.875 55.125 
Q 13.875 52.59375 15.15625 50.046875 
Q 16.453125 47.515625 18.84375 45.21875 
z
M 21.484375 31.5 
Q 17.4375 28.078125 15.484375 24.046875 
Q 13.53125 20.015625 13.53125 15.328125 
Q 13.53125 9.03125 16.96875 5.25 
Q 20.40625 1.46875 25.734375 1.46875 
Q 31 1.46875 34.171875 4.4375 
Q 37.359375 7.421875 37.359375 11.671875 
Q 37.359375 15.1875 35.5 17.96875 
Q 32.03125 23.140625 21.484375 31.5 
z
" id="TimesNewRomanPSMT-56"/>
       </defs>
       <use xlink:href="#TimesNewRomanPSMT-48"/>
       <use x="50" xlink:href="#TimesNewRomanPSMT-46"/>
       <use x="75" xlink:href="#TimesNewRomanPSMT-56"/>
      </g>
     </g>
    </g>
    <g id="ytick_6">
     <g id="line2d_106">
      <path clip-path="url(#p22f3634c1b)" d="M 46.765625 51.869599 
L 1441.765625 51.869599 
" style="fill:none;stroke:#000000;stroke-dasharray:1.85,0.8;stroke-dashoffset:0;stroke-opacity:0.5;stroke-width:0.5;"/>
     </g>
     <g id="line2d_107">
      <g>
       <use style="stroke:#000000;stroke-width:0.5;" x="46.765625" xlink:href="#m68fdfb141e" y="51.869599"/>
      </g>
     </g>
     <g id="line2d_108">
      <g>
       <use style="stroke:#000000;stroke-width:0.5;" x="1441.765625" xlink:href="#ma21b4d00dd" y="51.869599"/>
      </g>
     </g>
     <g id="text_16">
      <!-- 1.0 -->
      <g transform="translate(25.765625 56.730224)scale(0.14 -0.14)">
       <defs>
        <path d="M 11.71875 59.71875 
L 27.828125 67.578125 
L 29.4375 67.578125 
L 29.4375 11.671875 
Q 29.4375 6.109375 29.90625 4.734375 
Q 30.375 3.375 31.828125 2.640625 
Q 33.296875 1.90625 37.796875 1.8125 
L 37.796875 0 
L 12.890625 0 
L 12.890625 1.8125 
Q 17.578125 1.90625 18.9375 2.609375 
Q 20.3125 3.328125 20.84375 4.515625 
Q 21.390625 5.71875 21.390625 11.671875 
L 21.390625 47.40625 
Q 21.390625 54.640625 20.90625 56.6875 
Q 20.5625 58.25 19.65625 58.984375 
Q 18.75 59.71875 17.484375 59.71875 
Q 15.671875 59.71875 12.453125 58.203125 
z
" id="TimesNewRomanPSMT-49"/>
       </defs>
       <use xlink:href="#TimesNewRomanPSMT-49"/>
       <use x="50" xlink:href="#TimesNewRomanPSMT-46"/>
       <use x="75" xlink:href="#TimesNewRomanPSMT-48"/>
      </g>
     </g>
    </g>
    <g id="ytick_7">
     <g id="line2d_109">
      <defs>
       <path d="M 0 0 
L 1.5 0 
" id="mb9abe5c3c3" style="stroke:#000000;stroke-width:0.5;"/>
      </defs>
      <g>
       <use style="stroke:#000000;stroke-width:0.5;" x="46.765625" xlink:href="#mb9abe5c3c3" y="534.518667"/>
      </g>
     </g>
     <g id="line2d_110">
      <defs>
       <path d="M 0 0 
L -1.5 0 
" id="m012ea769e9" style="stroke:#000000;stroke-width:0.5;"/>
      </defs>
      <g>
       <use style="stroke:#000000;stroke-width:0.5;" x="1441.765625" xlink:href="#m012ea769e9" y="534.518667"/>
      </g>
     </g>
    </g>
    <g id="ytick_8">
     <g id="line2d_111">
      <g>
       <use style="stroke:#000000;stroke-width:0.5;" x="46.765625" xlink:href="#mb9abe5c3c3" y="509.116085"/>
      </g>
     </g>
     <g id="line2d_112">
      <g>
       <use style="stroke:#000000;stroke-width:0.5;" x="1441.765625" xlink:href="#m012ea769e9" y="509.116085"/>
      </g>
     </g>
    </g>
    <g id="ytick_9">
     <g id="line2d_113">
      <g>
       <use style="stroke:#000000;stroke-width:0.5;" x="46.765625" xlink:href="#mb9abe5c3c3" y="483.713502"/>
      </g>
     </g>
     <g id="line2d_114">
      <g>
       <use style="stroke:#000000;stroke-width:0.5;" x="1441.765625" xlink:href="#m012ea769e9" y="483.713502"/>
      </g>
     </g>
    </g>
    <g id="ytick_10">
     <g id="line2d_115">
      <g>
       <use style="stroke:#000000;stroke-width:0.5;" x="46.765625" xlink:href="#mb9abe5c3c3" y="432.908337"/>
      </g>
     </g>
     <g id="line2d_116">
      <g>
       <use style="stroke:#000000;stroke-width:0.5;" x="1441.765625" xlink:href="#m012ea769e9" y="432.908337"/>
      </g>
     </g>
    </g>
    <g id="ytick_11">
     <g id="line2d_117">
      <g>
       <use style="stroke:#000000;stroke-width:0.5;" x="46.765625" xlink:href="#mb9abe5c3c3" y="407.505755"/>
      </g>
     </g>
     <g id="line2d_118">
      <g>
       <use style="stroke:#000000;stroke-width:0.5;" x="1441.765625" xlink:href="#m012ea769e9" y="407.505755"/>
      </g>
     </g>
    </g>
    <g id="ytick_12">
     <g id="line2d_119">
      <g>
       <use style="stroke:#000000;stroke-width:0.5;" x="46.765625" xlink:href="#mb9abe5c3c3" y="382.103172"/>
      </g>
     </g>
     <g id="line2d_120">
      <g>
       <use style="stroke:#000000;stroke-width:0.5;" x="1441.765625" xlink:href="#m012ea769e9" y="382.103172"/>
      </g>
     </g>
    </g>
    <g id="ytick_13">
     <g id="line2d_121">
      <g>
       <use style="stroke:#000000;stroke-width:0.5;" x="46.765625" xlink:href="#mb9abe5c3c3" y="331.298007"/>
      </g>
     </g>
     <g id="line2d_122">
      <g>
       <use style="stroke:#000000;stroke-width:0.5;" x="1441.765625" xlink:href="#m012ea769e9" y="331.298007"/>
      </g>
     </g>
    </g>
    <g id="ytick_14">
     <g id="line2d_123">
      <g>
       <use style="stroke:#000000;stroke-width:0.5;" x="46.765625" xlink:href="#mb9abe5c3c3" y="305.895424"/>
      </g>
     </g>
     <g id="line2d_124">
      <g>
       <use style="stroke:#000000;stroke-width:0.5;" x="1441.765625" xlink:href="#m012ea769e9" y="305.895424"/>
      </g>
     </g>
    </g>
    <g id="ytick_15">
     <g id="line2d_125">
      <g>
       <use style="stroke:#000000;stroke-width:0.5;" x="46.765625" xlink:href="#mb9abe5c3c3" y="280.492842"/>
      </g>
     </g>
     <g id="line2d_126">
      <g>
       <use style="stroke:#000000;stroke-width:0.5;" x="1441.765625" xlink:href="#m012ea769e9" y="280.492842"/>
      </g>
     </g>
    </g>
    <g id="ytick_16">
     <g id="line2d_127">
      <g>
       <use style="stroke:#000000;stroke-width:0.5;" x="46.765625" xlink:href="#mb9abe5c3c3" y="229.687677"/>
      </g>
     </g>
     <g id="line2d_128">
      <g>
       <use style="stroke:#000000;stroke-width:0.5;" x="1441.765625" xlink:href="#m012ea769e9" y="229.687677"/>
      </g>
     </g>
    </g>
    <g id="ytick_17">
     <g id="line2d_129">
      <g>
       <use style="stroke:#000000;stroke-width:0.5;" x="46.765625" xlink:href="#mb9abe5c3c3" y="204.285094"/>
      </g>
     </g>
     <g id="line2d_130">
      <g>
       <use style="stroke:#000000;stroke-width:0.5;" x="1441.765625" xlink:href="#m012ea769e9" y="204.285094"/>
      </g>
     </g>
    </g>
    <g id="ytick_18">
     <g id="line2d_131">
      <g>
       <use style="stroke:#000000;stroke-width:0.5;" x="46.765625" xlink:href="#mb9abe5c3c3" y="178.882511"/>
      </g>
     </g>
     <g id="line2d_132">
      <g>
       <use style="stroke:#000000;stroke-width:0.5;" x="1441.765625" xlink:href="#m012ea769e9" y="178.882511"/>
      </g>
     </g>
    </g>
    <g id="ytick_19">
     <g id="line2d_133">
      <g>
       <use style="stroke:#000000;stroke-width:0.5;" x="46.765625" xlink:href="#mb9abe5c3c3" y="128.077346"/>
      </g>
     </g>
     <g id="line2d_134">
      <g>
       <use style="stroke:#000000;stroke-width:0.5;" x="1441.765625" xlink:href="#m012ea769e9" y="128.077346"/>
      </g>
     </g>
    </g>
    <g id="ytick_20">
     <g id="line2d_135">
      <g>
       <use style="stroke:#000000;stroke-width:0.5;" x="46.765625" xlink:href="#mb9abe5c3c3" y="102.674764"/>
      </g>
     </g>
     <g id="line2d_136">
      <g>
       <use style="stroke:#000000;stroke-width:0.5;" x="1441.765625" xlink:href="#m012ea769e9" y="102.674764"/>
      </g>
     </g>
    </g>
    <g id="ytick_21">
     <g id="line2d_137">
      <g>
       <use style="stroke:#000000;stroke-width:0.5;" x="46.765625" xlink:href="#mb9abe5c3c3" y="77.272181"/>
      </g>
     </g>
     <g id="line2d_138">
      <g>
       <use style="stroke:#000000;stroke-width:0.5;" x="1441.765625" xlink:href="#m012ea769e9" y="77.272181"/>
      </g>
     </g>
    </g>
    <g id="ytick_22">
     <g id="line2d_139">
      <g>
       <use style="stroke:#000000;stroke-width:0.5;" x="46.765625" xlink:href="#mb9abe5c3c3" y="26.467016"/>
      </g>
     </g>
     <g id="line2d_140">
      <g>
       <use style="stroke:#000000;stroke-width:0.5;" x="1441.765625" xlink:href="#m012ea769e9" y="26.467016"/>
      </g>
     </g>
    </g>
    <g id="text_17">
     <!-- Numbers Of Accidents -->
     <g transform="translate(17.4875 379.77125)rotate(-90)scale(0.2 -0.2)">
      <defs>
       <path d="M -1.3125 66.21875 
L 16.65625 66.21875 
L 57.125 16.546875 
L 57.125 54.734375 
Q 57.125 60.84375 55.765625 62.359375 
Q 53.953125 64.40625 50.046875 64.40625 
L 47.75 64.40625 
L 47.75 66.21875 
L 70.796875 66.21875 
L 70.796875 64.40625 
L 68.453125 64.40625 
Q 64.265625 64.40625 62.5 61.859375 
Q 61.421875 60.296875 61.421875 54.734375 
L 61.421875 -1.078125 
L 59.671875 -1.078125 
L 16.015625 52.25 
L 16.015625 11.46875 
Q 16.015625 5.375 17.328125 3.859375 
Q 19.1875 1.8125 23.046875 1.8125 
L 25.390625 1.8125 
L 25.390625 0 
L 2.34375 0 
L 2.34375 1.8125 
L 4.640625 1.8125 
Q 8.890625 1.8125 10.640625 4.34375 
Q 11.71875 5.90625 11.71875 11.46875 
L 11.71875 57.515625 
Q 8.84375 60.890625 7.34375 61.953125 
Q 5.859375 63.03125 2.984375 63.96875 
Q 1.5625 64.40625 -1.3125 64.40625 
z
" id="TimesNewRomanPSMT-78"/>
       <path d="M 15.375 37.015625 
Q 21.875 46.046875 29.390625 46.046875 
Q 36.28125 46.046875 41.40625 40.15625 
Q 46.53125 34.28125 46.53125 24.078125 
Q 46.53125 12.15625 38.625 4.890625 
Q 31.84375 -1.375 23.484375 -1.375 
Q 19.578125 -1.375 15.546875 0.046875 
Q 11.53125 1.46875 7.328125 4.296875 
L 7.328125 50.640625 
Q 7.328125 58.25 6.953125 60 
Q 6.59375 61.765625 5.8125 62.390625 
Q 5.03125 63.03125 3.859375 63.03125 
Q 2.484375 63.03125 0.4375 62.25 
L -0.25 63.96875 
L 13.1875 69.4375 
L 15.375 69.4375 
z
M 15.375 33.890625 
L 15.375 7.125 
Q 17.875 4.6875 20.53125 3.4375 
Q 23.1875 2.203125 25.984375 2.203125 
Q 30.421875 2.203125 34.25 7.078125 
Q 38.09375 11.96875 38.09375 21.296875 
Q 38.09375 29.890625 34.25 34.5 
Q 30.421875 39.109375 25.53125 39.109375 
Q 22.953125 39.109375 20.359375 37.796875 
Q 18.40625 36.8125 15.375 33.890625 
z
" id="TimesNewRomanPSMT-98"/>
       <path d="M 20.609375 41.21875 
L 20.609375 11.8125 
Q 20.609375 5.5625 21.96875 3.90625 
Q 23.78125 1.765625 26.8125 1.765625 
L 30.859375 1.765625 
L 30.859375 0 
L 4.15625 0 
L 4.15625 1.765625 
L 6.15625 1.765625 
Q 8.109375 1.765625 9.71875 2.734375 
Q 11.328125 3.71875 11.9375 5.375 
Q 12.546875 7.03125 12.546875 11.8125 
L 12.546875 41.21875 
L 3.859375 41.21875 
L 3.859375 44.734375 
L 12.546875 44.734375 
L 12.546875 47.65625 
Q 12.546875 54.34375 14.6875 58.984375 
Q 16.84375 63.625 21.265625 66.484375 
Q 25.6875 69.34375 31.203125 69.34375 
Q 36.328125 69.34375 40.625 66.015625 
Q 43.453125 63.8125 43.453125 61.078125 
Q 43.453125 59.625 42.1875 58.328125 
Q 40.921875 57.03125 39.453125 57.03125 
Q 38.328125 57.03125 37.078125 57.828125 
Q 35.84375 58.640625 34.03125 61.296875 
Q 32.234375 63.96875 30.71875 64.890625 
Q 29.203125 65.828125 27.34375 65.828125 
Q 25.09375 65.828125 23.53125 64.625 
Q 21.96875 63.421875 21.28125 60.90625 
Q 20.609375 58.40625 20.609375 47.953125 
L 20.609375 44.734375 
L 32.125 44.734375 
L 32.125 41.21875 
z
" id="TimesNewRomanPSMT-102"/>
       <path d="M 45.75 22.171875 
L 20.125 22.171875 
L 15.625 11.71875 
Q 13.96875 7.859375 13.96875 5.953125 
Q 13.96875 4.4375 15.40625 3.296875 
Q 16.84375 2.15625 21.625 1.8125 
L 21.625 0 
L 0.78125 0 
L 0.78125 1.8125 
Q 4.9375 2.546875 6.15625 3.71875 
Q 8.640625 6.0625 11.671875 13.234375 
L 34.96875 67.71875 
L 36.671875 67.71875 
L 59.71875 12.640625 
Q 62.5 6 64.765625 4.015625 
Q 67.046875 2.046875 71.09375 1.8125 
L 71.09375 0 
L 44.96875 0 
L 44.96875 1.8125 
Q 48.921875 2 50.3125 3.125 
Q 51.703125 4.25 51.703125 5.859375 
Q 51.703125 8.015625 49.75 12.640625 
z
M 44.390625 25.78125 
L 33.15625 52.546875 
L 21.625 25.78125 
z
" id="TimesNewRomanPSMT-65"/>
       <path d="M 41.109375 17 
Q 39.3125 8.15625 34.03125 3.390625 
Q 28.765625 -1.375 22.359375 -1.375 
Q 14.75 -1.375 9.078125 5.015625 
Q 3.421875 11.421875 3.421875 22.3125 
Q 3.421875 32.859375 9.6875 39.453125 
Q 15.96875 46.046875 24.75 46.046875 
Q 31.34375 46.046875 35.59375 42.546875 
Q 39.84375 39.0625 39.84375 35.296875 
Q 39.84375 33.453125 38.640625 32.296875 
Q 37.453125 31.15625 35.296875 31.15625 
Q 32.421875 31.15625 30.953125 33.015625 
Q 30.125 34.03125 29.859375 36.90625 
Q 29.59375 39.796875 27.875 41.3125 
Q 26.171875 42.78125 23.140625 42.78125 
Q 18.265625 42.78125 15.28125 39.15625 
Q 11.328125 34.375 11.328125 26.515625 
Q 11.328125 18.5 15.25 12.375 
Q 19.1875 6.25 25.875 6.25 
Q 30.671875 6.25 34.46875 9.515625 
Q 37.15625 11.765625 39.703125 17.671875 
z
" id="TimesNewRomanPSMT-99"/>
      </defs>
      <use xlink:href="#TimesNewRomanPSMT-78"/>
      <use x="72.216797" xlink:href="#TimesNewRomanPSMT-117"/>
      <use x="122.216797" xlink:href="#TimesNewRomanPSMT-109"/>
      <use x="200" xlink:href="#TimesNewRomanPSMT-98"/>
      <use x="250" xlink:href="#TimesNewRomanPSMT-101"/>
      <use x="294.384766" xlink:href="#TimesNewRomanPSMT-114"/>
      <use x="327.685547" xlink:href="#TimesNewRomanPSMT-115"/>
      <use x="366.601562" xlink:href="#TimesNewRomanPSMT-32"/>
      <use x="391.601562" xlink:href="#TimesNewRomanPSMT-79"/>
      <use x="463.818359" xlink:href="#TimesNewRomanPSMT-102"/>
      <use x="497.119141" xlink:href="#TimesNewRomanPSMT-32"/>
      <use x="516.619141" xlink:href="#TimesNewRomanPSMT-65"/>
      <use x="588.835938" xlink:href="#TimesNewRomanPSMT-99"/>
      <use x="633.220703" xlink:href="#TimesNewRomanPSMT-99"/>
      <use x="677.605469" xlink:href="#TimesNewRomanPSMT-105"/>
      <use x="705.388672" xlink:href="#TimesNewRomanPSMT-100"/>
      <use x="755.388672" xlink:href="#TimesNewRomanPSMT-101"/>
      <use x="799.773438" xlink:href="#TimesNewRomanPSMT-110"/>
      <use x="849.773438" xlink:href="#TimesNewRomanPSMT-116"/>
      <use x="877.556641" xlink:href="#TimesNewRomanPSMT-115"/>
     </g>
    </g>
    <g id="text_18">
     <!-- 1e6 -->
     <g transform="translate(46.765625 13.32125)scale(0.14 -0.14)">
      <use xlink:href="#TimesNewRomanPSMT-49"/>
      <use x="50" xlink:href="#TimesNewRomanPSMT-101"/>
      <use x="94.384766" xlink:href="#TimesNewRomanPSMT-54"/>
     </g>
    </g>
   </g>
   <g id="patch_3">
    <path clip-path="url(#p22f3634c1b)" d="M 62.265625 559.92125 
L 103.598958 559.92125 
L 103.598958 558.979322 
L 62.265625 558.979322 
z
" style="fill:#1f5c92;"/>
   </g>
   <g id="patch_4">
    <path clip-path="url(#p22f3634c1b)" d="M 217.265625 559.92125 
L 258.598958 559.92125 
L 258.598958 551.718756 
L 217.265625 551.718756 
z
" style="fill:#1f5c92;"/>
   </g>
   <g id="patch_5">
    <path clip-path="url(#p22f3634c1b)" d="M 372.265625 559.92125 
L 413.598958 559.92125 
L 413.598958 559.797285 
L 372.265625 559.797285 
z
" style="fill:#1f5c92;"/>
   </g>
   <g id="patch_6">
    <path clip-path="url(#p22f3634c1b)" d="M 527.265625 559.92125 
L 568.598958 559.92125 
L 568.598958 559.875525 
L 527.265625 559.875525 
z
" style="fill:#1f5c92;"/>
   </g>
   <g id="patch_7">
    <path clip-path="url(#p22f3634c1b)" d="M 682.265625 559.92125 
L 723.598958 559.92125 
L 723.598958 559.771883 
L 682.265625 559.771883 
z
" style="fill:#1f5c92;"/>
   </g>
   <g id="patch_8">
    <path clip-path="url(#p22f3634c1b)" d="M 837.265625 559.92125 
L 878.598958 559.92125 
L 878.598958 559.74902 
L 837.265625 559.74902 
z
" style="fill:#1f5c92;"/>
   </g>
   <g id="patch_9">
    <path clip-path="url(#p22f3634c1b)" d="M 992.265625 559.92125 
L 1033.598958 559.92125 
L 1033.598958 559.778996 
L 992.265625 559.778996 
z
" style="fill:#1f5c92;"/>
   </g>
   <g id="patch_10">
    <path clip-path="url(#p22f3634c1b)" d="M 1147.265625 559.92125 
L 1188.598958 559.92125 
L 1188.598958 559.830309 
L 1147.265625 559.830309 
z
" style="fill:#1f5c92;"/>
   </g>
   <g id="patch_11">
    <path clip-path="url(#p22f3634c1b)" d="M 1302.265625 559.92125 
L 1343.598958 559.92125 
L 1343.598958 559.914645 
L 1302.265625 559.914645 
z
" style="fill:#1f5c92;"/>
   </g>
   <g id="patch_12">
    <path clip-path="url(#p22f3634c1b)" d="M 103.598958 559.92125 
L 144.932292 559.92125 
L 144.932292 549.027098 
L 103.598958 549.027098 
z
" style="fill:#17a24b;"/>
   </g>
   <g id="patch_13">
    <path clip-path="url(#p22f3634c1b)" d="M 258.598958 559.92125 
L 299.932292 559.92125 
L 299.932292 474.1728 
L 258.598958 474.1728 
z
" style="fill:#17a24b;"/>
   </g>
   <g id="patch_14">
    <path clip-path="url(#p22f3634c1b)" d="M 413.598958 559.92125 
L 454.932292 559.92125 
L 454.932292 558.555099 
L 413.598958 558.555099 
z
" style="fill:#17a24b;"/>
   </g>
   <g id="patch_15">
    <path clip-path="url(#p22f3634c1b)" d="M 568.598958 559.92125 
L 609.932292 559.92125 
L 609.932292 559.373062 
L 568.598958 559.373062 
z
" style="fill:#17a24b;"/>
   </g>
   <g id="patch_16">
    <path clip-path="url(#p22f3634c1b)" d="M 723.598958 559.92125 
L 764.932292 559.92125 
L 764.932292 558.053144 
L 723.598958 558.053144 
z
" style="fill:#17a24b;"/>
   </g>
   <g id="patch_17">
    <path clip-path="url(#p22f3634c1b)" d="M 878.598958 559.92125 
L 919.932292 559.92125 
L 919.932292 558.555099 
L 878.598958 558.555099 
z
" style="fill:#17a24b;"/>
   </g>
   <g id="patch_18">
    <path clip-path="url(#p22f3634c1b)" d="M 1033.598958 559.92125 
L 1074.932292 559.92125 
L 1074.932292 558.514455 
L 1033.598958 558.514455 
z
" style="fill:#17a24b;"/>
   </g>
   <g id="patch_19">
    <path clip-path="url(#p22f3634c1b)" d="M 1188.598958 559.92125 
L 1229.932292 559.92125 
L 1229.932292 559.338515 
L 1188.598958 559.338515 
z
" style="fill:#17a24b;"/>
   </g>
   <g id="patch_20">
    <path clip-path="url(#p22f3634c1b)" d="M 1343.598958 559.92125 
L 1384.932292 559.92125 
L 1384.932292 559.807446 
L 1343.598958 559.807446 
z
" style="fill:#17a24b;"/>
   </g>
   <g id="patch_21">
    <path clip-path="url(#p22f3634c1b)" d="M 144.932292 559.92125 
L 186.265625 559.92125 
L 186.265625 481.495349 
L 144.932292 481.495349 
z
" style="fill:#df9020;"/>
   </g>
   <g id="patch_22">
    <path clip-path="url(#p22f3634c1b)" d="M 299.932292 559.92125 
L 341.265625 559.92125 
L 341.265625 42.206964 
L 299.932292 42.206964 
z
" style="fill:#df9020;"/>
   </g>
   <g id="patch_23">
    <path clip-path="url(#p22f3634c1b)" d="M 454.932292 559.92125 
L 496.265625 559.92125 
L 496.265625 547.035536 
L 454.932292 547.035536 
z
" style="fill:#df9020;"/>
   </g>
   <g id="patch_24">
    <path clip-path="url(#p22f3634c1b)" d="M 609.932292 559.92125 
L 651.265625 559.92125 
L 651.265625 554.773671 
L 609.932292 554.773671 
z
" style="fill:#df9020;"/>
   </g>
   <g id="patch_25">
    <path clip-path="url(#p22f3634c1b)" d="M 764.932292 559.92125 
L 806.265625 559.92125 
L 806.265625 544.917469 
L 764.932292 544.917469 
z
" style="fill:#df9020;"/>
   </g>
   <g id="patch_26">
    <path clip-path="url(#p22f3634c1b)" d="M 919.932292 559.92125 
L 961.265625 559.92125 
L 961.265625 552.134342 
L 919.932292 552.134342 
z
" style="fill:#df9020;"/>
   </g>
   <g id="patch_27">
    <path clip-path="url(#p22f3634c1b)" d="M 1074.932292 559.92125 
L 1116.265625 559.92125 
L 1116.265625 550.89622 
L 1074.932292 550.89622 
z
" style="fill:#df9020;"/>
   </g>
   <g id="patch_28">
    <path clip-path="url(#p22f3634c1b)" d="M 1229.932292 559.92125 
L 1271.265625 559.92125 
L 1271.265625 556.433983 
L 1229.932292 556.433983 
z
" style="fill:#df9020;"/>
   </g>
   <g id="patch_29">
    <path clip-path="url(#p22f3634c1b)" d="M 1384.932292 559.92125 
L 1426.265625 559.92125 
L 1426.265625 559.045877 
L 1384.932292 559.045877 
z
" style="fill:#df9020;"/>
   </g>
   <g id="patch_30">
    <path d="M 46.765625 559.92125 
L 46.765625 16.32125 
" style="fill:none;stroke:#000000;stroke-linecap:square;stroke-linejoin:miter;stroke-width:1.5;"/>
   </g>
   <g id="patch_31">
    <path d="M 1441.765625 559.92125 
L 1441.765625 16.32125 
" style="fill:none;stroke:#000000;stroke-linecap:square;stroke-linejoin:miter;stroke-width:1.5;"/>
   </g>
   <g id="patch_32">
    <path d="M 46.765625 559.92125 
L 1441.765625 559.92125 
" style="fill:none;stroke:#000000;stroke-linecap:square;stroke-linejoin:miter;stroke-width:1.5;"/>
   </g>
   <g id="patch_33">
    <path d="M 46.765625 16.32125 
L 1441.765625 16.32125 
" style="fill:none;stroke:#000000;stroke-linecap:square;stroke-linejoin:miter;stroke-width:1.5;"/>
   </g>
   <g id="legend_1">
    <g id="patch_34">
     <path d="M 1325.677187 106.67375 
L 1431.965625 106.67375 
Q 1434.765625 106.67375 1434.765625 103.87375 
L 1434.765625 26.12125 
Q 1434.765625 23.32125 1431.965625 23.32125 
L 1325.677187 23.32125 
Q 1322.877187 23.32125 1322.877187 26.12125 
L 1322.877187 103.87375 
Q 1322.877187 106.67375 1325.677187 106.67375 
z
" style="fill:#ffffff;stroke:#cccccc;stroke-linejoin:miter;"/>
    </g>
    <g id="text_19">
     <!-- Accident Severity -->
     <g transform="translate(1328.477187 38.6425)scale(0.14 -0.14)">
      <defs>
       <path d="M 0.828125 44.734375 
L 21.875 44.734375 
L 21.875 42.921875 
L 20.515625 42.921875 
Q 18.609375 42.921875 17.609375 41.984375 
Q 16.609375 41.0625 16.609375 39.5 
Q 16.609375 37.796875 17.625 35.453125 
L 28.03125 10.75 
L 38.484375 36.375 
Q 39.59375 39.109375 39.59375 40.53125 
Q 39.59375 41.21875 39.203125 41.65625 
Q 38.671875 42.390625 37.84375 42.65625 
Q 37.015625 42.921875 34.46875 42.921875 
L 34.46875 44.734375 
L 49.078125 44.734375 
L 49.078125 42.921875 
Q 46.53125 42.71875 45.5625 41.890625 
Q 43.84375 40.4375 42.484375 37.015625 
L 26.609375 -1.375 
L 24.609375 -1.375 
L 8.640625 36.375 
Q 7.5625 39.015625 6.578125 40.15625 
Q 5.609375 41.3125 4.109375 42.09375 
Q 3.265625 42.53125 0.828125 42.921875 
z
" id="TimesNewRomanPSMT-118"/>
       <path d="M 0.59375 44.734375 
L 21.4375 44.734375 
L 21.4375 42.921875 
L 20.40625 42.921875 
Q 18.21875 42.921875 17.109375 41.96875 
Q 16.015625 41.015625 16.015625 39.59375 
Q 16.015625 37.703125 17.625 34.328125 
L 28.515625 11.765625 
L 38.53125 36.46875 
Q 39.359375 38.484375 39.359375 40.4375 
Q 39.359375 41.3125 39.015625 41.75 
Q 38.625 42.28125 37.796875 42.59375 
Q 36.96875 42.921875 34.859375 42.921875 
L 34.859375 44.734375 
L 49.421875 44.734375 
L 49.421875 42.921875 
Q 47.609375 42.71875 46.625 42.125 
Q 45.65625 41.546875 44.484375 39.9375 
Q 44.046875 39.265625 42.828125 36.1875 
L 24.609375 -8.453125 
Q 21.96875 -14.9375 17.6875 -18.25 
Q 13.421875 -21.578125 9.46875 -21.578125 
Q 6.59375 -21.578125 4.734375 -19.921875 
Q 2.875 -18.265625 2.875 -16.109375 
Q 2.875 -14.0625 4.21875 -12.8125 
Q 5.5625 -11.578125 7.90625 -11.578125 
Q 9.515625 -11.578125 12.3125 -12.640625 
Q 14.265625 -13.375 14.75 -13.375 
Q 16.21875 -13.375 17.9375 -11.859375 
Q 19.671875 -10.359375 21.4375 -6 
L 24.609375 1.765625 
L 8.546875 35.5 
Q 7.8125 37.015625 6.203125 39.265625 
Q 4.984375 40.96875 4.203125 41.546875 
Q 3.078125 42.328125 0.59375 42.921875 
z
" id="TimesNewRomanPSMT-121"/>
      </defs>
      <use xlink:href="#TimesNewRomanPSMT-65"/>
      <use x="72.216797" xlink:href="#TimesNewRomanPSMT-99"/>
      <use x="116.601562" xlink:href="#TimesNewRomanPSMT-99"/>
      <use x="160.986328" xlink:href="#TimesNewRomanPSMT-105"/>
      <use x="188.769531" xlink:href="#TimesNewRomanPSMT-100"/>
      <use x="238.769531" xlink:href="#TimesNewRomanPSMT-101"/>
      <use x="283.154297" xlink:href="#TimesNewRomanPSMT-110"/>
      <use x="333.154297" xlink:href="#TimesNewRomanPSMT-116"/>
      <use x="360.9375" xlink:href="#TimesNewRomanPSMT-32"/>
      <use x="385.9375" xlink:href="#TimesNewRomanPSMT-83"/>
      <use x="441.552734" xlink:href="#TimesNewRomanPSMT-101"/>
      <use x="485.9375" xlink:href="#TimesNewRomanPSMT-118"/>
      <use x="535.9375" xlink:href="#TimesNewRomanPSMT-101"/>
      <use x="580.322266" xlink:href="#TimesNewRomanPSMT-114"/>
      <use x="613.623047" xlink:href="#TimesNewRomanPSMT-105"/>
      <use x="641.40625" xlink:href="#TimesNewRomanPSMT-116"/>
      <use x="669.189453" xlink:href="#TimesNewRomanPSMT-121"/>
     </g>
    </g>
    <g id="patch_35">
     <path d="M 1338.221406 58.463438 
L 1366.221406 58.463438 
L 1366.221406 48.663438 
L 1338.221406 48.663438 
z
" style="fill:#1f5c92;"/>
    </g>
    <g id="text_20">
     <!-- Fatal -->
     <g transform="translate(1377.421406 58.463438)scale(0.14 -0.14)">
      <defs>
       <path d="M 18.5 69.4375 
L 18.5 10.109375 
Q 18.5 5.90625 19.109375 4.53125 
Q 19.734375 3.171875 21 2.46875 
Q 22.265625 1.765625 25.734375 1.765625 
L 25.734375 0 
L 3.8125 0 
L 3.8125 1.765625 
Q 6.890625 1.765625 8 2.390625 
Q 9.125 3.03125 9.765625 4.484375 
Q 10.40625 5.953125 10.40625 10.109375 
L 10.40625 50.734375 
Q 10.40625 58.296875 10.0625 60.03125 
Q 9.71875 61.765625 8.953125 62.390625 
Q 8.203125 63.03125 7.03125 63.03125 
Q 5.765625 63.03125 3.8125 62.25 
L 2.984375 63.96875 
L 16.3125 69.4375 
z
" id="TimesNewRomanPSMT-108"/>
      </defs>
      <use xlink:href="#TimesNewRomanPSMT-70"/>
      <use x="55.615234" xlink:href="#TimesNewRomanPSMT-97"/>
      <use x="100" xlink:href="#TimesNewRomanPSMT-116"/>
      <use x="127.783203" xlink:href="#TimesNewRomanPSMT-97"/>
      <use x="172.167969" xlink:href="#TimesNewRomanPSMT-108"/>
     </g>
    </g>
    <g id="patch_36">
     <path d="M 1338.221406 78.258125 
L 1366.221406 78.258125 
L 1366.221406 68.458125 
L 1338.221406 68.458125 
z
" style="fill:#17a24b;"/>
    </g>
    <g id="text_21">
     <!-- Serious -->
     <g transform="translate(1377.421406 78.258125)scale(0.14 -0.14)">
      <use xlink:href="#TimesNewRomanPSMT-83"/>
      <use x="55.615234" xlink:href="#TimesNewRomanPSMT-101"/>
      <use x="100" xlink:href="#TimesNewRomanPSMT-114"/>
      <use x="133.300781" xlink:href="#TimesNewRomanPSMT-105"/>
      <use x="161.083984" xlink:href="#TimesNewRomanPSMT-111"/>
      <use x="211.083984" xlink:href="#TimesNewRomanPSMT-117"/>
      <use x="261.083984" xlink:href="#TimesNewRomanPSMT-115"/>
     </g>
    </g>
    <g id="patch_37">
     <path d="M 1338.221406 98.052813 
L 1366.221406 98.052813 
L 1366.221406 88.252813 
L 1338.221406 88.252813 
z
" style="fill:#df9020;"/>
    </g>
    <g id="text_22">
     <!-- Slight -->
     <g transform="translate(1377.421406 98.052813)scale(0.14 -0.14)">
      <use xlink:href="#TimesNewRomanPSMT-83"/>
      <use x="55.615234" xlink:href="#TimesNewRomanPSMT-108"/>
      <use x="83.398438" xlink:href="#TimesNewRomanPSMT-105"/>
      <use x="111.181641" xlink:href="#TimesNewRomanPSMT-103"/>
      <use x="161.181641" xlink:href="#TimesNewRomanPSMT-104"/>
      <use x="211.181641" xlink:href="#TimesNewRomanPSMT-116"/>
     </g>
    </g>
   </g>
  </g>
 </g>
 <defs>
  <clipPath id="p22f3634c1b">
   <rect height="543.6" width="1395" x="46.765625" y="16.32125"/>
  </clipPath>
 </defs>
</svg>
